<svg width="9915" height="1913" viewBox="0 0 9915 1913" fill="none" xmlns="http://www.w3.org/2000/svg">
<g clip-path="url(#clip0_4008_1476)">
<path d="M982.797 444.077L780.254 375L625.931 391.422L498.303 499.395L526.365 520.409L498.303 546.721L468 625.175L550.731 781L588.774 776.364C519.196 657.478 550.655 570.549 559.464 550.905C560.711 548.151 561.508 546.721 561.508 546.721C561.508 546.721 576.569 492.441 662.23 499.395C747.907 506.334 767.673 591.156 856.656 572.009C945.625 552.847 999 513.815 999 513.815L982.797 444.077Z" fill="#EF3923"/>
<path d="M873.059 206.848C787.453 187.448 712.316 186.286 647.452 195.851C633.232 205.587 618.124 216.958 603 230.008C699.09 286.32 809.792 372.03 864.985 488.535C910.356 557.749 899.721 658 899.721 658C1216.69 283.513 873.059 206.848 873.059 206.848Z" fill="#EF3923"/>
<path d="M873.806 206.509C829.38 196.386 787.803 191.262 749 190C819.964 265.093 892.638 391.968 900 599.164C902.999 632.896 900.345 658 900.345 658C1215.84 283.232 873.806 206.509 873.806 206.509Z" fill="#E73022"/>
<path d="M916.129 221C985.139 386.247 900 658 900 658C1143.05 369.628 996.879 257.48 916.129 221Z" fill="#C52824"/>
<path d="M398 1614L412.583 1913H453.426L477 1614H398Z" fill="url(#paint0_linear_4008_1476)"/>
<path d="M655 1614L669.768 1879H711.128L735 1614H655Z" fill="url(#paint1_linear_4008_1476)"/>
<path d="M231.244 41.8284C231.244 41.8284 114.805 154.001 250.962 264.192C250.962 264.192 128.717 240.521 126.747 157.672C126.747 157.672 122.792 110.333 164.212 68.9031C164.212 68.9031 191.81 32.5107 152.375 41.8284C152.375 41.8284 80.4843 62.9841 74.0322 161.617C74.0322 161.617 71.5206 260.249 181.959 295.755C181.959 295.755 80.4092 310.551 35.0489 215.863C35.0489 215.863 24.2051 190.219 7.43557 204.027C7.43557 204.027 -17.1997 216.85 23.2125 278.001C23.2125 278.001 89.2677 382.555 232.237 369.736C232.237 369.736 162.331 438.766 74.0322 406.222C74.0322 406.222 43.9223 389.446 40.9595 391.432C40.9595 391.432 21.2421 383.864 32.0859 424.141C32.0859 424.141 46.5543 470 169.129 456.519C169.129 456.519 256.812 444.648 310.084 406.192C363.37 367.75 477.162 372.685 477.162 372.685L648 195.21C648 195.21 278.575 303.648 252.932 155.698C252.932 155.698 231.244 80.738 316.039 51.1507C316.039 51.1507 361.385 41.2883 375.191 68.9031C375.191 68.9031 390.968 90.6018 412.656 78.7669C412.656 78.7669 440.269 53.1247 406.745 29.4504C406.745 29.4504 375.296 0.00601893 327.8 6.76471e-07C300.067 -0.00300845 266.874 10.0325 231.244 41.8284Z" fill="url(#paint2_linear_4008_1476)"/>
<path d="M684.1 1020.26C569.121 1060.21 508.307 1185.83 548.283 1300.83C588.259 1415.83 713.905 1476.68 828.884 1436.74C943.892 1396.77 1004.69 1271.17 964.716 1156.17C933.06 1065.09 847.706 1007.98 756.454 1008C732.456 1008 708.052 1011.94 684.1 1020.26Z" fill="url(#paint3_linear_4008_1476)"/>
<path d="M113 1106.24V1208.18C113 1208.18 163.342 1392.06 163.342 1400.96C163.342 1409.86 255.141 1516 255.141 1516H462.442L619.401 1463.46L655 1380.19L554.406 1207.17C557.192 1359.12 374.031 1362.4 374.031 1362.4C164.185 1383.16 138.314 1051 138.314 1051L113 1106.24Z" fill="url(#paint4_linear_4008_1476)"/>
<path d="M334.946 372.409C56.9051 724.15 435.664 1145.65 435.664 1145.65C589.493 1301.98 571.082 1382.12 571.082 1382.12C569.758 1462.26 444.388 1463.1 444.388 1463.1C101.277 1454.24 138.385 1052.25 138.385 1052.25C19.8431 1283.33 101.277 1427.62 101.277 1427.62C154.509 1587.24 441.44 1646.35 441.44 1646.35C843.723 1723.2 932.453 1424.67 932.453 1424.67C1006.41 1185.25 781.602 990.173 781.602 990.173L722.444 931.058C663.286 871.944 610.039 806.907 610.039 806.907C553.829 735.979 542.007 653.221 542.007 653.221C515.383 437.445 716.533 425.616 716.533 425.616C926.541 407.88 899.918 659.128 899.918 659.128C1216.42 283.739 873.295 206.89 873.295 206.89C821.311 195.064 773.209 189.997 728.912 190C463.175 190.02 334.946 372.409 334.946 372.409Z" fill="url(#paint5_linear_4008_1476)"/>
<path d="M649.138 195.867C649.138 195.867 295.687 316.287 307.491 611.969C307.491 611.969 283.899 810.076 563.906 1005.22C563.906 1005.22 991.745 1259.5 903.124 1487C924.87 1451.7 932.744 1425.08 932.744 1425.08C1006.49 1185.58 782.333 990.44 782.333 990.44L723.346 931.306C664.361 872.172 611.269 807.113 611.269 807.113C555.237 736.161 543.434 653.376 543.434 653.376C516.888 437.528 717.453 425.695 717.453 425.695C926.85 407.953 900.304 659.285 900.304 659.285C1215.89 283.77 873.773 206.895 873.773 206.895C821.941 195.067 773.979 190 729.826 190C701.345 190 674.469 192.106 649.138 195.867Z" fill="url(#paint6_linear_4008_1476)"/>
<path d="M647.907 195.85C531.573 275.563 355.477 464.764 600.031 792C552.276 724.583 541.864 651.921 541.864 651.921C515.233 436.751 716.426 424.956 716.426 424.956C926.51 407.27 899.879 657.811 899.879 657.811C1216.47 283.476 873.248 206.844 873.248 206.844C821.265 195.052 773.148 190 728.838 190C700.282 190 673.304 192.101 647.907 195.85Z" fill="url(#paint7_linear_4008_1476)"/>
<path d="M363.495 1035.26C361.654 1035.9 359.827 1036.56 358 1037.25C400.242 1104.69 437.168 1145.93 437.168 1145.93C590.307 1302.14 571.979 1382.22 571.979 1382.22C571.605 1404.93 561.302 1421.26 546.733 1433C635.229 1380.97 677.741 1271.88 642.776 1170.95C611.271 1080.03 526.323 1023.02 435.506 1023C411.622 1023 387.334 1026.95 363.495 1035.26Z" fill="url(#paint8_linear_4008_1476)"/>
<path d="M3991.73 608.374C3979.09 608.739 3966.59 609.103 3954.79 608.101C3955.09 828.003 3954.34 1048.07 3955.09 1267.97C3954.03 1305.24 3968.24 1350.95 4008.88 1360.73C4071.23 1375.41 4135.87 1370.51 4199.29 1368.52V1266.29C4192.12 1265.53 4183.86 1265.7 4175.3 1265.87C4147.58 1266.42 4116.68 1266.97 4108.98 1236.03C4105.31 1119.44 4108.68 1002.68 4107.61 886.068C4131.14 879.968 4159.87 881.804 4177.44 862.08C4201.59 840.533 4196.4 805.391 4201.13 776.656C4169.95 776.512 4138.78 776.512 4107.75 776.512C4103.17 728.681 4121.36 670.151 4084.98 631.326C4064.91 611.256 4038.49 608 4011.35 608C4004.83 608 3998.26 608.187 3991.73 608.374Z" fill="url(#paint9_linear_4008_1476)"/>
<path d="M1447.22 609.626C1402.75 611.473 1368.22 655.779 1372.33 699.342C1371.89 923.661 1372.49 1148.17 1372.18 1372.5H1525C1528.06 1167.1 1518.43 961.421 1530.66 756.338C1567.79 964.169 1631.36 1166.18 1675.67 1372.5H1832.94C1878.63 1166.18 1937.31 962.946 1980.85 756.184C1986.51 961.574 1981.92 1167.1 1983.45 1372.5H2136.27V608.413H1901.24C1852.49 802.798 1804.34 997.489 1755.16 1191.86C1705.64 997.33 1656.73 802.491 1604.93 608.413C1585.45 608.696 1565.95 608.495 1546.46 608.293C1533.85 608.164 1521.26 608.034 1508.66 608.034C1488.15 608.034 1467.66 608.38 1447.22 609.626Z" fill="url(#paint10_linear_4008_1476)"/>
<path d="M7530.6 617.764V1382H7683.42C7682.19 1147.73 7685.71 913.461 7681.73 679.359C7672.12 625.265 7620.06 616.302 7571.91 616.302C7557.36 616.302 7543.16 617.122 7530.6 617.764Z" fill="url(#paint11_linear_4008_1476)"/>
<path d="M9761.73 617.621C9761.87 700.287 9761.43 782.949 9762.03 865.639C9702.9 766.462 9565.36 747.203 9468.16 797.628C9408.42 831.245 9374.17 895.89 9361.2 961.455C9343.93 1052.83 9343.61 1149.57 9372.34 1238.81C9400.63 1321.48 9478.56 1380.77 9564.59 1391.62C9659.94 1404.63 9771.06 1396.53 9843.94 1325.92C9902.47 1270.59 9914.09 1184.56 9914.55 1107.85C9913.32 964.812 9916.68 821.621 9913.02 678.741C9901.28 624.436 9849.6 616.59 9801.48 616.59C9787.58 616.59 9773.98 617.242 9761.73 617.621ZM9526.55 1202.44C9498.58 1143.91 9497.04 1075.45 9508.66 1012.64C9515.53 970.931 9541.67 928.586 9584.29 916.362C9637.35 898.954 9709.15 910.253 9737.11 964.05C9765.25 1017.39 9764.63 1080.95 9756.69 1139.49C9750.26 1182.43 9729.02 1227.81 9688.23 1247.83C9670.53 1255.7 9650.46 1259.78 9630.43 1259.79C9588.21 1259.79 9546.14 1241.62 9526.55 1202.44Z" fill="url(#paint12_linear_4008_1476)"/>
<path d="M5740.2 619.141C5698.93 616.547 5664.54 651.693 5667.31 692.796C5664.54 922.486 5667 1152.31 5666.24 1382H6216.39V1244.46H5819.05V1045.8C5849.75 1045 5880.52 1045.45 5911.28 1045.9C5962.28 1046.65 6013.25 1047.4 6063.86 1042.44C6125.45 1029.31 6115.51 955.954 6117.96 908.416C6060.79 908.243 6003.6 908.272 5946.43 908.296C5903.97 908.315 5861.51 908.329 5819.05 908.272V755.46H6216.39V617.928C6155.05 618.283 6093.7 618.081 6032.37 617.889C5995.53 617.769 5958.71 617.654 5921.88 617.654C5861.31 617.654 5800.74 617.971 5740.2 619.141Z" fill="url(#paint13_linear_4008_1476)"/>
<path d="M6669.93 779.294C6632.65 841.339 6595.51 903.384 6560.07 966.499C6526.13 906.281 6491.91 846.389 6458.13 786.017H6286.52C6345.98 883.209 6407.55 979.179 6467.15 1076.37C6404.8 1179.38 6337.73 1279.46 6274.59 1382H6458.29C6492.97 1318.44 6527.82 1255.02 6563.89 1192.21C6599.33 1255.47 6634.48 1318.89 6669.78 1382.3C6729.53 1381.85 6789.29 1382 6849.05 1382C6782.56 1281.3 6718.08 1179.38 6651.91 1078.36C6724.96 962.207 6802.42 848.676 6875.62 732.374C6855.82 735.174 6833.19 733.817 6810.13 732.46C6796.94 731.683 6783.63 730.911 6770.6 730.911C6729.23 730.911 6690.9 738.742 6669.93 779.294Z" fill="url(#paint14_linear_4008_1476)"/>
<path d="M2306.51 793.317C2251.64 822.047 2226.29 882.409 2215.27 940.33C2264.79 941.093 2314.45 941.395 2363.97 940.028C2393.16 893.405 2455.81 892.964 2503.47 905.025C2528.85 910.377 2552.99 932.681 2547.5 960.659C2524.88 1006.35 2466.81 1004.36 2423.88 1012.61C2349.76 1021.93 2263.42 1037.52 2221.39 1106.59C2178.9 1184.22 2191.74 1295.48 2265.24 1350.19C2333.41 1398.94 2423.24 1394.96 2501.8 1380.43C2574.86 1366.23 2645.46 1319.16 2669.29 1245.97C2698.94 1153.66 2681.98 1054.78 2686.56 959.575C2691.45 891.573 2662.88 817.765 2597.31 788.886C2552.22 770.413 2502.62 760.496 2453.2 760.496C2402.44 760.496 2351.87 770.945 2306.51 793.317ZM2384.59 1262.62C2331.87 1236.03 2343.33 1150.45 2395.76 1130.12C2446.02 1111.18 2499.21 1101.1 2549.48 1081.83C2547.5 1129.36 2555.14 1183.45 2522.13 1223.04C2499.4 1254 2461.64 1267.7 2424.08 1267.7C2410.66 1267.7 2397.27 1265.96 2384.59 1262.62Z" fill="url(#paint15_linear_4008_1476)"/>
<path d="M5253.88 762.907C5186.34 770.245 5111.45 797.45 5079.07 861.787C5042.09 928.398 5044.98 1024.36 5108.26 1074.19C5185.89 1143.56 5300.5 1126.15 5386.07 1178.88C5407 1187.42 5407.92 1211.43 5402.28 1230.22C5370.33 1277.9 5302.95 1266.29 5254.81 1258.34C5214.76 1251.61 5197.19 1211.74 5187.86 1176.89C5152.13 1177.65 5116.32 1177.63 5080.53 1177.62C5066.28 1177.62 5052.04 1177.61 5037.8 1177.65C5037.34 1248.56 5069.9 1320.85 5135.45 1353.39C5230.51 1401.08 5347.26 1396.79 5445.83 1361.33C5556.77 1323.13 5596.64 1163.9 5518.7 1077.1C5443.38 1013.52 5339.3 1013.52 5251.43 978.071C5224.54 967.981 5192 934.071 5217.2 906.094C5244.71 877.373 5291.33 883.934 5327.39 886.533C5373.24 888.523 5381.79 945.068 5420.75 958.658C5448.36 962.6 5476.27 962.322 5504.22 962.044C5516.49 961.919 5528.76 961.799 5541.02 962.03C5534.15 916.496 5524.37 867.739 5490.75 833.661C5440.65 778.618 5364.52 761.397 5291.96 761.397C5279.1 761.397 5266.35 761.939 5253.88 762.907Z" fill="url(#paint16_linear_4008_1476)"/>
<path d="M8817.62 851.716C8754.97 926.455 8751.44 1030.98 8755.12 1123.74C8758.79 1218.95 8794.86 1325.6 8886.08 1369.93C8966 1406.45 9062.45 1405.83 9143.44 1372.22C9215.11 1340.74 9256.36 1268 9275.16 1195.1C9262.26 1195.47 9248.91 1195.01 9235.44 1194.56C9187.76 1192.93 9138.5 1191.3 9102.16 1226.45C9062.12 1263.1 9000.55 1269.38 8953.63 1243.09C8914.82 1215.74 8909.48 1165.31 8904.12 1122.21C8958.62 1122.14 9013.13 1122.17 9067.64 1122.19C9139.98 1122.21 9212.31 1122.23 9284.63 1122.06C9285.09 1033.43 9280.06 938.228 9228.09 862.573C9186.53 804.652 9114.7 776.08 9045.17 772.263C9035.2 771.457 9025.06 771.035 9014.86 771.035C8941.54 771.035 8864.58 792.836 8817.62 851.716ZM8903.81 1014.48C8916.95 968.633 8939.87 912.855 8995.81 911.014C9064.11 891.15 9121.73 949.978 9126.77 1014.93C9087.94 1015.1 9049.15 1015.34 9010.39 1015.34C8974.85 1015.34 8939.33 1015.14 8903.81 1014.48Z" fill="url(#paint17_linear_4008_1476)"/>
<path d="M7934.49 780.057C7855.95 794.276 7789.93 854.178 7767.31 930.586C7738.89 1022.26 7737.51 1122.51 7760.59 1215.74C7777.85 1287.1 7826.29 1353.58 7897.98 1377.28C7996.55 1410.43 8119.55 1406.91 8199.17 1332.48C8265.49 1265.87 8279.56 1165.92 8279.25 1076.06C8276.81 990.948 8261.99 897.42 8198.56 834.919C8149.66 789.03 8083.05 771.555 8016.79 771.555C7988.84 771.555 7960.97 774.662 7934.49 780.057ZM7933.44 1224.59C7895.53 1172.95 7894.62 1105.26 7899.34 1044.12C7903.62 996.285 7919.37 941.899 7965.22 918.05C8010.14 897.88 8072.35 909.035 8098.94 953.207C8131.93 1014.48 8130.56 1087.83 8119.71 1154.61C8112.68 1195.56 8090.97 1240.03 8048.96 1254.09C8037.08 1257.65 8024.32 1259.56 8011.57 1259.57C7981.64 1259.57 7951.76 1249.04 7933.44 1224.59Z" fill="url(#paint18_linear_4008_1476)"/>
<path d="M3764.54 776.215C3750.64 776.753 3737.25 777.29 3725.56 776.354V1372.5H3878.38C3876.08 1189.12 3882.81 1005.27 3875.17 822.354C3863.62 781.874 3827.61 775.573 3790.03 775.573C3781.53 775.573 3772.94 775.894 3764.54 776.215Z" fill="url(#paint19_linear_4008_1476)"/>
<path d="M3419 837.94C3353.76 887.454 3330.53 972.566 3329 1051.11C3327.01 1158.25 3328.86 1265.37 3328.24 1372.5H3481.05C3481.21 1275.46 3480.91 1178.57 3480.91 1081.53C3481.21 1040.11 3482.13 993.355 3513 961.575C3551.35 924.745 3607.89 929.478 3656.94 928.71C3656.8 877.676 3656.8 826.785 3656.8 775.736C3574.89 777.731 3485.32 783.687 3419 837.94Z" fill="url(#paint20_linear_4008_1476)"/>
<path d="M3118.42 822.661C3106.81 944.608 3120.86 1068.24 3111.4 1190.49C3106.36 1271.17 2991.43 1286.76 2940.71 1239.85C2914.56 1215.1 2917.15 1176.29 2915.49 1143.27C2915.63 1021.02 2915.63 898.767 2915.63 776.513H2762.82C2763.26 899.683 2761.89 1022.85 2763.26 1146.02C2764.65 1209.29 2775.95 1279.9 2824.7 1324.82C2927.25 1404.58 3078.84 1406.41 3188.41 1339.95C3248.63 1302.21 3263.59 1225.47 3265.59 1159.62C3269.1 1031.85 3266.04 904.104 3267.11 776.355C3255.8 777.266 3242.8 776.854 3229.27 776.436C3221.7 776.206 3213.98 775.976 3206.28 775.976C3167.66 775.976 3129.9 781.798 3118.42 822.661Z" fill="url(#paint21_linear_4008_1476)"/>
<path d="M4845.1 823.117C4832.56 949.351 4850.44 1077.56 4835.93 1203.79C4821.57 1268.58 4737.51 1276.37 4686.16 1254.21C4651.18 1236.8 4642.17 1196.15 4642.76 1160.54C4641.71 1032.48 4642.76 904.57 4642.46 776.513H4489.65C4490.1 899.064 4488.88 1021.47 4490.1 1144.03C4491.32 1207.6 4502.18 1278.96 4551.07 1324.35C4653.63 1404.75 4805.82 1406.58 4915.7 1339.64C4975.91 1301.59 4990.42 1224.86 4992.42 1158.85C4995.93 1031.41 4993.02 903.807 4993.95 776.355C4982.64 777.261 4969.67 776.858 4956.17 776.451C4948.65 776.225 4940.97 775.995 4933.32 775.995C4894.51 776 4856.52 781.836 4845.1 823.117Z" fill="url(#paint22_linear_4008_1476)"/>
<path d="M4289.91 776.263C4280.08 776.374 4270.24 776.479 4260.42 776.354V1372.5H4413.23C4412.94 1198.88 4413.69 1025.14 4412.94 851.549C4415.68 820.829 4399.63 785.375 4366.64 779.577C4347.84 776.709 4328.92 776.12 4309.96 776.12C4303.28 776.12 4296.59 776.191 4289.91 776.263Z" fill="url(#paint23_linear_4008_1476)"/>
<path d="M6973.28 848.549C6911.39 906.009 6898.54 995.557 6896.72 1075.79C6895.8 1255.2 6896.72 1434.61 6896.25 1614C6933.71 1612.78 6971.75 1615.54 7008.89 1608.2C7043.27 1593.23 7046.17 1551.66 7047.09 1519.27C7047.85 1447.59 7047.85 1375.77 7046.17 1304.1C7124.42 1428.34 7325.37 1417.18 7401.61 1296.9C7454.96 1206.6 7456.49 1095.03 7443.34 993.879C7431.43 904.326 7369.84 818.13 7278.91 797.053C7243.36 788.167 7205.23 782.863 7167.19 782.859C7096.65 782.859 7026.4 801.091 6973.28 848.549ZM7090.96 1228.14C7045.26 1174.97 7043.43 1099.32 7049.69 1033.15C7055.64 986.853 7075.97 933.21 7124.56 917.471C7173.93 898.519 7237.8 911.51 7267.75 957.504C7301.67 1011.3 7301.52 1078.55 7293.58 1139.52C7286.55 1181.24 7269.29 1227.84 7228.94 1248.02C7211.42 1255.33 7191.85 1259.33 7172.39 1259.33C7142.3 1259.33 7112.48 1249.77 7090.96 1228.14Z" fill="url(#paint24_linear_4008_1476)"/>
<path d="M8461.88 847.44C8396.76 896.805 8373.39 982.085 8372 1060.47C8369.73 1167.59 8371.7 1274.88 8371.1 1382H8523.92C8523.92 1285.26 8523.76 1188.54 8523.76 1091.8C8524.2 1050.24 8524.66 1003.02 8555.7 971.075C8594.2 934.259 8650.75 938.983 8699.79 938.23C8699.49 887.185 8699.65 836.299 8699.65 785.255C8617.74 787.241 8528.19 793.192 8461.88 847.44Z" fill="url(#paint25_linear_4008_1476)"/>
</g>
<defs>
<linearGradient id="paint0_linear_4008_1476" x1="437.493" y1="1913" x2="437.493" y2="1614" gradientUnits="userSpaceOnUse">
<stop stop-color="#F39113"/>
<stop offset="0.177419" stop-color="#EA7118"/>
<stop offset="0.322581" stop-color="#DB511E"/>
<stop offset="0.532258" stop-color="#DA4C1F"/>
<stop offset="0.774193" stop-color="#E42F23"/>
<stop offset="1" stop-color="#D02725"/>
</linearGradient>
<linearGradient id="paint1_linear_4008_1476" x1="695.008" y1="1879" x2="695.008" y2="1614" gradientUnits="userSpaceOnUse">
<stop stop-color="#F39113"/>
<stop offset="0.177419" stop-color="#EA7118"/>
<stop offset="0.322581" stop-color="#DB511E"/>
<stop offset="0.532258" stop-color="#DA4C1F"/>
<stop offset="0.774193" stop-color="#E42F23"/>
<stop offset="1" stop-color="#D02725"/>
</linearGradient>
<linearGradient id="paint2_linear_4008_1476" x1="177.447" y1="208.818" x2="532.473" y2="386.268" gradientUnits="userSpaceOnUse">
<stop stop-color="#141311"/>
<stop offset="0.0107527" stop-color="#141311"/>
<stop offset="0.365591" stop-color="#1E1C1B"/>
<stop offset="0.709677" stop-color="#433F41"/>
<stop offset="1" stop-color="#776D74"/>
</linearGradient>
<linearGradient id="paint3_linear_4008_1476" x1="834.029" y1="1415.81" x2="692.078" y2="1072.61" gradientUnits="userSpaceOnUse">
<stop stop-color="#D02725"/>
<stop offset="0.225807" stop-color="#E42F23"/>
<stop offset="0.467742" stop-color="#DA4C1F"/>
<stop offset="0.677419" stop-color="#DB511E"/>
<stop offset="0.822581" stop-color="#EA7118"/>
<stop offset="1" stop-color="#F39113"/>
</linearGradient>
<linearGradient id="paint4_linear_4008_1476" x1="113" y1="1283.49" x2="655" y2="1283.49" gradientUnits="userSpaceOnUse">
<stop stop-color="#776D74"/>
<stop offset="0.290323" stop-color="#433F41"/>
<stop offset="0.634409" stop-color="#1E1C1B"/>
<stop offset="0.989247" stop-color="#141311"/>
<stop offset="1" stop-color="#141311"/>
</linearGradient>
<linearGradient id="paint5_linear_4008_1476" x1="509.156" y1="1323.98" x2="585.951" y2="522.957" gradientUnits="userSpaceOnUse">
<stop stop-color="#141311"/>
<stop offset="0.0107527" stop-color="#141311"/>
<stop offset="0.365591" stop-color="#1E1C1B"/>
<stop offset="0.709677" stop-color="#433F41"/>
<stop offset="1" stop-color="#776D74"/>
</linearGradient>
<linearGradient id="paint6_linear_4008_1476" x1="976.538" y1="918.752" x2="550.509" y2="383.601" gradientUnits="userSpaceOnUse">
<stop stop-color="#DDD0CA"/>
<stop offset="0.306452" stop-color="#F2E3DD"/>
<stop offset="0.655914" stop-color="#F3E6E1"/>
<stop offset="1" stop-color="#F7EFEB"/>
</linearGradient>
<linearGradient id="paint7_linear_4008_1476" x1="567.412" y1="630.623" x2="820.912" y2="370.235" gradientUnits="userSpaceOnUse">
<stop stop-color="#FBCB38"/>
<stop offset="0.182796" stop-color="#F89F22"/>
<stop offset="0.397849" stop-color="#F17815"/>
<stop offset="0.704301" stop-color="#EE591C"/>
<stop offset="1" stop-color="#EA451F"/>
</linearGradient>
<linearGradient id="paint8_linear_4008_1476" x1="627.727" y1="1342.24" x2="397.085" y2="1012.05" gradientUnits="userSpaceOnUse">
<stop stop-color="#D02725"/>
<stop offset="0.225807" stop-color="#E42F23"/>
<stop offset="0.467742" stop-color="#DA4C1F"/>
<stop offset="0.677419" stop-color="#DB511E"/>
<stop offset="0.822581" stop-color="#EA7118"/>
<stop offset="1" stop-color="#F39113"/>
</linearGradient>
<linearGradient id="paint9_linear_4008_1476" x1="2433.33" y1="897.458" x2="-305.928" y2="742.139" gradientUnits="userSpaceOnUse">
<stop stop-color="#141311"/>
<stop offset="0.0107527" stop-color="#141311"/>
<stop offset="0.365591" stop-color="#1E1C1B"/>
<stop offset="0.709677" stop-color="#433F41"/>
<stop offset="1" stop-color="#776D74"/>
</linearGradient>
<linearGradient id="paint10_linear_4008_1476" x1="2425.9" y1="1028.54" x2="-313.345" y2="873.223" gradientUnits="userSpaceOnUse">
<stop stop-color="#141311"/>
<stop offset="0.0107527" stop-color="#141311"/>
<stop offset="0.365591" stop-color="#1E1C1B"/>
<stop offset="0.709677" stop-color="#433F41"/>
<stop offset="1" stop-color="#776D74"/>
</linearGradient>
<linearGradient id="paint11_linear_4008_1476" x1="6175.79" y1="1013.59" x2="10432.4" y2="971.239" gradientUnits="userSpaceOnUse">
<stop stop-color="#EA451F"/>
<stop offset="0.295699" stop-color="#EE591C"/>
<stop offset="0.602151" stop-color="#F17815"/>
<stop offset="0.817204" stop-color="#F89F22"/>
<stop offset="1" stop-color="#FBCB38"/>
</linearGradient>
<linearGradient id="paint12_linear_4008_1476" x1="6176.16" y1="1041.94" x2="10432.5" y2="999.589" gradientUnits="userSpaceOnUse">
<stop stop-color="#EA451F"/>
<stop offset="0.295699" stop-color="#EE591C"/>
<stop offset="0.602151" stop-color="#F17815"/>
<stop offset="0.817204" stop-color="#F89F22"/>
<stop offset="1" stop-color="#FBCB38"/>
</linearGradient>
<linearGradient id="paint13_linear_4008_1476" x1="6175.74" y1="998.447" x2="10432" y2="956.096" gradientUnits="userSpaceOnUse">
<stop stop-color="#EA451F"/>
<stop offset="0.295699" stop-color="#EE591C"/>
<stop offset="0.602151" stop-color="#F17815"/>
<stop offset="0.817204" stop-color="#F89F22"/>
<stop offset="1" stop-color="#FBCB38"/>
</linearGradient>
<linearGradient id="paint14_linear_4008_1476" x1="6176.38" y1="1062.75" x2="10432.7" y2="1020.4" gradientUnits="userSpaceOnUse">
<stop stop-color="#EA451F"/>
<stop offset="0.295699" stop-color="#EE591C"/>
<stop offset="0.602151" stop-color="#F17815"/>
<stop offset="0.817204" stop-color="#F89F22"/>
<stop offset="1" stop-color="#FBCB38"/>
</linearGradient>
<linearGradient id="paint15_linear_4008_1476" x1="2423.28" y1="1074.91" x2="-315.963" y2="919.588" gradientUnits="userSpaceOnUse">
<stop stop-color="#141311"/>
<stop offset="0.0107527" stop-color="#141311"/>
<stop offset="0.365591" stop-color="#1E1C1B"/>
<stop offset="0.709677" stop-color="#433F41"/>
<stop offset="1" stop-color="#776D74"/>
</linearGradient>
<linearGradient id="paint16_linear_4008_1476" x1="2432.45" y1="912.787" x2="-306.826" y2="757.467" gradientUnits="userSpaceOnUse">
<stop stop-color="#141311"/>
<stop offset="0.0107527" stop-color="#141311"/>
<stop offset="0.365591" stop-color="#1E1C1B"/>
<stop offset="0.709677" stop-color="#433F41"/>
<stop offset="1" stop-color="#776D74"/>
</linearGradient>
<linearGradient id="paint17_linear_4008_1476" x1="6176.89" y1="1112.45" x2="10433.2" y2="1070.1" gradientUnits="userSpaceOnUse">
<stop stop-color="#EA451F"/>
<stop offset="0.295699" stop-color="#EE591C"/>
<stop offset="0.602151" stop-color="#F17815"/>
<stop offset="0.817204" stop-color="#F89F22"/>
<stop offset="1" stop-color="#FBCB38"/>
</linearGradient>
<linearGradient id="paint18_linear_4008_1476" x1="6176.76" y1="1102.75" x2="10433.1" y2="1060.4" gradientUnits="userSpaceOnUse">
<stop stop-color="#EA451F"/>
<stop offset="0.295699" stop-color="#EE591C"/>
<stop offset="0.602151" stop-color="#F17815"/>
<stop offset="0.817204" stop-color="#F89F22"/>
<stop offset="1" stop-color="#FBCB38"/>
</linearGradient>
<linearGradient id="paint19_linear_4008_1476" x1="2427.63" y1="998.391" x2="-311.602" y2="843.074" gradientUnits="userSpaceOnUse">
<stop stop-color="#141311"/>
<stop offset="0.0107527" stop-color="#141311"/>
<stop offset="0.365591" stop-color="#1E1C1B"/>
<stop offset="0.709677" stop-color="#433F41"/>
<stop offset="1" stop-color="#776D74"/>
</linearGradient>
<linearGradient id="paint20_linear_4008_1476" x1="2426.75" y1="1013.69" x2="-312.488" y2="858.369" gradientUnits="userSpaceOnUse">
<stop stop-color="#141311"/>
<stop offset="0.0107527" stop-color="#141311"/>
<stop offset="0.365591" stop-color="#1E1C1B"/>
<stop offset="0.709677" stop-color="#433F41"/>
<stop offset="1" stop-color="#776D74"/>
</linearGradient>
<linearGradient id="paint21_linear_4008_1476" x1="2425.17" y1="1041.56" x2="-314.065" y2="886.244" gradientUnits="userSpaceOnUse">
<stop stop-color="#141311"/>
<stop offset="0.0107527" stop-color="#141311"/>
<stop offset="0.365591" stop-color="#1E1C1B"/>
<stop offset="0.709677" stop-color="#433F41"/>
<stop offset="1" stop-color="#776D74"/>
</linearGradient>
<linearGradient id="paint22_linear_4008_1476" x1="2430.71" y1="943.977" x2="-308.541" y2="788.659" gradientUnits="userSpaceOnUse">
<stop stop-color="#141311"/>
<stop offset="0.0107527" stop-color="#141311"/>
<stop offset="0.365591" stop-color="#1E1C1B"/>
<stop offset="0.709677" stop-color="#433F41"/>
<stop offset="1" stop-color="#776D74"/>
</linearGradient>
<linearGradient id="paint23_linear_4008_1476" x1="2429.32" y1="968.601" x2="-309.909" y2="813.284" gradientUnits="userSpaceOnUse">
<stop stop-color="#141311"/>
<stop offset="0.0107527" stop-color="#141311"/>
<stop offset="0.365591" stop-color="#1E1C1B"/>
<stop offset="0.709677" stop-color="#433F41"/>
<stop offset="1" stop-color="#776D74"/>
</linearGradient>
<linearGradient id="paint24_linear_4008_1476" x1="6177.8" y1="1206.92" x2="10434.1" y2="1164.57" gradientUnits="userSpaceOnUse">
<stop stop-color="#EA451F"/>
<stop offset="0.295699" stop-color="#EE591C"/>
<stop offset="0.602151" stop-color="#F17815"/>
<stop offset="0.817204" stop-color="#F89F22"/>
<stop offset="1" stop-color="#FBCB38"/>
</linearGradient>
<linearGradient id="paint25_linear_4008_1476" x1="6176.8" y1="1107.86" x2="10433.1" y2="1065.51" gradientUnits="userSpaceOnUse">
<stop stop-color="#EA451F"/>
<stop offset="0.295699" stop-color="#EE591C"/>
<stop offset="0.602151" stop-color="#F17815"/>
<stop offset="0.817204" stop-color="#F89F22"/>
<stop offset="1" stop-color="#FBCB38"/>
</linearGradient>
<clipPath id="clip0_4008_1476">
<rect width="9915" height="1913" fill="white"/>
</clipPath>
</defs>
</svg>
