<svg width="2667" height="2430" viewBox="0 0 2667 2430" fill="none" xmlns="http://www.w3.org/2000/svg">
<g clip-path="url(#clip0_4002_1541)">
<path d="M1796.67 888.244L1594.13 819.167L1439.81 835.589L1312.18 943.562L1340.24 964.576L1312.18 990.888L1281.88 1069.34L1364.61 1225.17L1402.65 1220.53C1333.07 1101.65 1364.53 1014.72 1373.34 995.072C1374.59 992.318 1375.39 990.888 1375.39 990.888C1375.39 990.888 1390.45 936.608 1476.11 943.562C1561.79 950.501 1581.55 1035.32 1670.53 1016.18C1759.5 997.014 1812.88 957.982 1812.88 957.982L1796.67 888.244Z" fill="#EF3923"/>
<path d="M1686.94 651.015C1601.33 631.615 1526.19 630.453 1461.33 640.018C1447.11 649.754 1432 661.125 1416.88 674.175C1512.97 730.487 1623.67 816.197 1678.86 932.702C1724.23 1001.92 1713.6 1102.17 1713.6 1102.17C2030.57 727.68 1686.94 651.015 1686.94 651.015Z" fill="#EF3923"/>
<path d="M1687.68 650.676C1643.26 640.553 1601.68 635.429 1562.88 634.167C1633.84 709.26 1706.52 836.135 1713.88 1043.33C1716.88 1077.06 1714.22 1102.17 1714.22 1102.17C2029.72 727.399 1687.68 650.676 1687.68 650.676Z" fill="#E73022"/>
<path d="M1730.01 665.167C1799.02 830.414 1713.88 1102.17 1713.88 1102.17C1956.92 813.795 1810.76 701.647 1730.01 665.167Z" fill="#C52824"/>
<path d="M1211.88 2058.17L1226.46 2357.17H1267.3L1290.88 2058.17H1211.88Z" fill="url(#paint0_linear_4002_1541)"/>
<path d="M1468.88 2058.17L1483.65 2323.17H1525.01L1548.88 2058.17H1468.88Z" fill="url(#paint1_linear_4002_1541)"/>
<path d="M1045.12 485.995C1045.12 485.995 928.683 598.168 1064.84 708.359C1064.84 708.359 942.595 684.688 940.625 601.839C940.625 601.839 936.67 554.5 978.09 513.07C978.09 513.07 1005.69 476.678 966.253 485.995C966.253 485.995 894.362 507.151 887.91 605.784C887.91 605.784 885.398 704.416 995.836 739.922C995.836 739.922 894.287 754.718 848.927 660.03C848.927 660.03 838.083 634.386 821.314 648.194C821.314 648.194 796.678 661.017 837.09 722.168C837.09 722.168 903.146 826.722 1046.11 813.903C1046.11 813.903 976.209 882.933 887.91 850.389C887.91 850.389 857.8 833.613 854.837 835.599C854.837 835.599 835.12 828.031 845.964 868.308C845.964 868.308 860.432 914.167 983.007 900.686C983.007 900.686 1070.69 888.815 1123.96 850.359C1177.25 811.917 1291.04 816.852 1291.04 816.852L1461.88 639.377C1461.88 639.377 1092.45 747.815 1066.81 599.865C1066.81 599.865 1045.12 524.905 1129.92 495.318C1129.92 495.318 1175.26 485.455 1189.07 513.07C1189.07 513.07 1204.85 534.769 1226.53 522.934C1226.53 522.934 1254.15 497.292 1220.62 473.617C1220.62 473.617 1189.17 444.173 1141.68 444.167C1113.94 444.164 1080.75 454.199 1045.12 485.995Z" fill="url(#paint2_linear_4002_1541)"/>
<path d="M1497.98 1464.43C1383 1504.37 1322.18 1629.99 1362.16 1744.99C1402.14 1860 1527.78 1920.85 1642.76 1880.9C1757.77 1840.94 1818.57 1715.33 1778.59 1600.33C1746.94 1509.26 1661.58 1452.15 1570.33 1452.17C1546.33 1452.17 1521.93 1456.11 1497.98 1464.43Z" fill="url(#paint3_linear_4002_1541)"/>
<path d="M926.878 1550.41V1652.34C926.878 1652.34 977.22 1836.23 977.22 1845.13C977.22 1854.03 1069.02 1960.17 1069.02 1960.17H1276.32L1433.28 1907.62L1468.88 1824.36L1368.28 1651.33C1371.07 1803.29 1187.91 1806.56 1187.91 1806.56C978.063 1827.33 952.192 1495.17 952.192 1495.17L926.878 1550.41Z" fill="url(#paint4_linear_4002_1541)"/>
<path d="M1148.82 816.576C870.783 1168.32 1249.54 1589.81 1249.54 1589.81C1403.37 1746.14 1384.96 1826.29 1384.96 1826.29C1383.64 1906.43 1258.27 1907.27 1258.27 1907.27C915.155 1898.4 952.263 1496.42 952.263 1496.42C833.721 1727.49 915.155 1871.78 915.155 1871.78C968.387 2031.41 1255.32 2090.52 1255.32 2090.52C1657.6 2167.37 1746.33 1868.84 1746.33 1868.84C1820.29 1629.42 1595.48 1434.34 1595.48 1434.34L1536.32 1375.23C1477.16 1316.11 1423.92 1251.07 1423.92 1251.07C1367.71 1180.15 1355.88 1097.39 1355.88 1097.39C1329.26 881.612 1530.41 869.783 1530.41 869.783C1740.42 852.047 1713.8 1103.3 1713.8 1103.3C2030.3 727.905 1687.17 651.057 1687.17 651.057C1635.19 639.231 1587.09 634.164 1542.79 634.167C1277.05 634.187 1148.82 816.576 1148.82 816.576Z" fill="url(#paint5_linear_4002_1541)"/>
<path d="M1463.02 640.034C1463.02 640.034 1109.57 760.454 1121.37 1056.14C1121.37 1056.14 1097.78 1254.24 1377.78 1449.39C1377.78 1449.39 1805.62 1703.67 1717 1931.17C1738.75 1895.86 1746.62 1869.25 1746.62 1869.25C1820.37 1629.75 1596.21 1434.61 1596.21 1434.61L1537.22 1375.47C1478.24 1316.34 1425.15 1251.28 1425.15 1251.28C1369.12 1180.33 1357.31 1097.54 1357.31 1097.54C1330.77 881.695 1531.33 869.862 1531.33 869.862C1740.73 852.12 1714.18 1103.45 1714.18 1103.45C2029.76 727.937 1687.65 651.062 1687.65 651.062C1635.82 639.234 1587.86 634.167 1543.7 634.167C1515.22 634.167 1488.35 636.273 1463.02 640.034Z" fill="url(#paint6_linear_4002_1541)"/>
<path d="M1461.79 640.017C1345.45 719.73 1169.35 908.931 1413.91 1236.17C1366.15 1168.75 1355.74 1096.09 1355.74 1096.09C1329.11 880.918 1530.3 869.122 1530.3 869.122C1740.39 851.436 1713.76 1101.98 1713.76 1101.98C2030.35 727.643 1687.13 651.011 1687.13 651.011C1635.14 639.219 1587.03 634.167 1542.72 634.167C1514.16 634.167 1487.18 636.268 1461.79 640.017Z" fill="url(#paint7_linear_4002_1541)"/>
<path d="M1177.37 1479.42C1175.53 1480.07 1173.7 1480.73 1171.88 1481.42C1214.12 1548.85 1251.05 1590.1 1251.05 1590.1C1404.19 1746.31 1385.86 1826.39 1385.86 1826.39C1385.48 1849.1 1375.18 1865.42 1360.61 1877.17C1449.11 1825.14 1491.62 1716.04 1456.65 1615.12C1425.15 1524.19 1340.2 1467.18 1249.38 1467.17C1225.5 1467.17 1201.21 1471.12 1177.37 1479.42Z" fill="url(#paint8_linear_4002_1541)"/>
<path d="M1326.96 55.9255C1320.34 144.157 1315.72 232.567 1309.88 320.851C1380.37 325.293 1450.87 329.73 1521.38 334.167C1522.49 316.543 1523.6 298.92 1524.72 281.294C1473.76 278.086 1422.89 274.884 1371.95 271.675C1373.56 246.239 1375.15 220.744 1376.76 195.299C1408.19 196.458 1439.57 201.027 1470.96 199.938C1494.96 196.379 1492.91 167.936 1495.01 149.72C1456.71 147.197 1418.39 144.897 1380.09 142.429C1381.32 122.871 1382.55 103.246 1383.8 83.6838C1434.72 86.8901 1485.61 90.095 1536.55 93.3013C1537.66 75.677 1538.77 58.0541 1539.88 40.4312C1478.81 36.9337 1417.83 32.0341 1356.78 29.3741C1355.66 29.2345 1354.57 29.167 1353.47 29.167C1339.06 29.167 1326.9 41.1637 1326.96 55.9255Z" fill="url(#paint9_linear_4002_1541)"/>
<path d="M1955.88 521.21C1971.18 533.518 1986.49 545.827 2001.83 558.167C2057.83 487.046 2115.24 417.072 2170.36 345.338C2183.55 321.01 2156.65 302.416 2139.73 290.167C2078.44 367.182 2017.17 444.194 1955.88 521.21Z" fill="url(#paint10_linear_4002_1541)"/>
<path d="M1645.06 245.656C1610.2 276.174 1573.96 305.07 1538.88 335.327C1561.35 342.461 1583.77 349.573 1606.24 356.703C1626.36 337.429 1646.52 318.227 1667.06 299.393C1672.69 326.71 1678.2 354.059 1683.77 381.418C1705.74 388.205 1727.63 395.215 1749.55 402.167C1736.88 357.504 1725.1 312.623 1712.59 267.887C1752.89 233.791 1794.5 201.171 1834.88 167.043C1809.18 162.713 1777.14 137.128 1753.99 160.315C1733.1 178.729 1712.26 197.158 1691.92 216.178C1686.47 190.149 1680.9 164.203 1675.54 138.135C1654.52 131.468 1633.56 124.819 1612.6 118.167C1623.1 160.727 1634.51 203.083 1645.06 245.656Z" fill="url(#paint11_linear_4002_1541)"/>
<path d="M2255.44 636.458C2221.82 660.561 2189.12 686.02 2155.88 710.642C2167.59 726.466 2179.3 742.294 2191.04 758.167C2220.93 735.762 2250.8 713.309 2280.69 690.905C2293.63 681.416 2308.33 670.624 2325.34 672.879C2345.57 676.324 2357.13 695.001 2368.64 710.08C2384.35 698.167 2400.11 686.425 2415.88 674.603C2396.42 649.591 2373.97 623.122 2341.95 615.064C2335.1 613.069 2328.2 612.164 2321.29 612.167C2297.72 612.167 2274.43 622.744 2255.44 636.458Z" fill="url(#paint12_linear_4002_1541)"/>
<path d="M1892.43 244.806C1860.91 253.272 1840.35 281.583 1825.23 308.696C1792.52 369.902 1760.44 431.437 1727.88 492.726C1740.89 499.081 1753.39 506.899 1767.41 511.105C1781.85 512.205 1790.36 498.504 1796.52 487.593C1809.73 463.209 1822.7 438.639 1835.06 413.822C1839.37 470.467 1910.05 502.987 1957.8 475.627C1992.34 454.377 2013.01 416.492 2026.79 379.513C2038.89 346.724 2033.42 306.106 2006.16 282.453C1981.39 260.21 1948.21 242.169 1914.32 242.167C1907.04 242.167 1899.72 242.999 1892.43 244.806ZM1907.64 427.683C1889.02 425.99 1869.76 414.524 1864.08 395.936C1858.07 369.483 1871.12 343.274 1885.2 321.772C1895.59 307.011 1912.23 292.335 1931.67 295.737C1951.96 298.179 1971.43 314.17 1973.36 335.32C1975.24 359.857 1963.04 382.834 1949.32 402.257C1939.54 415.061 1925.5 427.691 1908.42 427.691C1908.16 427.691 1907.91 427.689 1907.64 427.691" fill="url(#paint13_linear_4002_1541)"/>
<path d="M2140.24 439.531C2108 457.074 2080.87 484.196 2062.32 515.934C2048 540.115 2043.52 571.293 2056.82 596.953C2074.97 632.39 2109.58 664.301 2151.24 665.167C2187.18 664.627 2217.71 640.974 2241.61 616.251C2263.64 592.254 2284.55 562.649 2283.86 528.553C2282.24 492.076 2255.48 461.799 2226.2 442.932C2212.63 433.769 2196.55 429.168 2180.46 429.167C2166.53 429.167 2152.58 432.613 2140.24 439.531ZM2131.04 603.521C2116.97 596.176 2105.13 581.101 2107.27 564.56C2110.68 540.264 2128.49 521.456 2146.1 505.955C2160.05 493.981 2178.86 483.271 2197.79 488.988C2215.46 495.46 2229.52 515.151 2225.02 534.368C2217.69 559.986 2197.76 579.738 2176.96 595.151C2168.02 601.658 2156.66 606.732 2145.46 606.732C2140.56 606.732 2135.67 605.764 2131.04 603.521Z" fill="url(#paint14_linear_4002_1541)"/>
<path d="M2322.38 752.688C2290.31 770.641 2260.02 801.649 2260.9 840.58C2262.46 874.26 2279.7 907.074 2305.55 928.835C2329.02 947.769 2361.3 949.1 2389.66 942.729C2378.76 923.047 2372.07 897.173 2348.35 889.171C2328.69 881.933 2315.66 862.011 2316.42 841.387C2318.96 823.335 2335.34 812.672 2349.21 803.279C2371.65 846.547 2393.93 889.904 2416.44 933.142C2446.97 917.767 2478.8 899.341 2495.61 868.338C2508.18 843.99 2505.32 814.452 2494.36 790.058C2482.2 761.039 2459.38 732.81 2426.89 726.313C2420.32 724.836 2413.76 724.167 2407.24 724.167C2377.25 724.167 2348.03 738.293 2322.38 752.688ZM2386.17 784.284C2404.25 780.727 2427.46 778.768 2437.97 797.536C2456.85 817.368 2446.81 847.355 2425.37 860.471C2412.13 835.121 2398.81 809.875 2386.17 784.284Z" fill="url(#paint15_linear_4002_1541)"/>
<path d="M2491.14 937.422C2455.31 940.031 2419.16 949.461 2388.69 968.952C2360.62 987.633 2346.2 1022.46 2350.69 1055.54C2355.28 1092.27 2369.33 1132.79 2402.92 1152.92C2429.38 1169.21 2462.66 1165.04 2491.36 1157.64C2544.64 1143.07 2598.45 1130.17 2651.43 1114.7C2676.06 1102.16 2665.31 1072.58 2659.25 1052.4C2628.4 1060.62 2597.49 1068.63 2566.67 1077.01C2597.85 1045.22 2591.4 992.176 2562.93 961.021C2546.31 944.019 2522.34 937.167 2498.94 937.167C2496.32 937.167 2493.73 937.257 2491.14 937.422ZM2416.65 1087.31C2402.06 1069.27 2398.85 1039.15 2417.55 1022.7C2436.64 1006.52 2462.04 999.193 2486.66 997.304C2502.92 995.744 2521.32 1001.29 2530.09 1015.92C2541.87 1033.93 2544.77 1061.74 2527.46 1077.46C2510.33 1093.2 2486.52 1099.24 2463.88 1102.06C2461.14 1102.37 2458.34 1102.52 2455.51 1102.52C2441.14 1102.52 2426.27 1098.33 2416.65 1087.31Z" fill="url(#paint16_linear_4002_1541)"/>
<path d="M59.177 883.279C123.462 925.948 187.934 968.421 252.157 1011.24C175.15 1004.14 98.1069 996.787 20.9708 990.587C14.4669 1009.73 6.67191 1028.48 1.07489 1047.86C-3.98764 1064.21 7.64482 1082.41 23.9885 1086.53C105.37 1115.54 186.951 1144.2 268.352 1173.17C274.914 1154.73 281.498 1136.25 288.057 1117.81C213.885 1090.3 137.975 1067.33 65.0938 1036.52C145.336 1049.8 226.873 1052.77 307.488 1063.25C314.247 1044.26 321.007 1025.29 327.763 1006.3C258.757 963.209 192.539 915.823 123.089 873.455C198.383 897.822 272.413 925.918 347.171 951.797C353.735 933.361 360.314 914.88 366.878 896.444C274.392 863.675 181.965 830.936 89.4817 798.167C79.3731 826.563 69.2856 854.899 59.177 883.279Z" fill="url(#paint17_linear_4002_1541)"/>
<path d="M613.878 230.709C656.892 303.99 699.586 377.526 742.751 450.723C749.672 463.36 763.331 475.833 778.809 471.166C802.489 463.904 823.101 449.668 843.878 436.636C837.233 425.271 830.574 413.905 823.929 402.541C813.157 407.404 799.144 421.599 787.882 410.06C763.903 371.894 742.243 332.298 719.129 293.614C725.795 286.995 735.74 282.004 737.759 272C741.615 260.102 733.022 249.396 728.995 238.888C718.559 244.921 708.154 250.998 697.797 257.049C686.936 241.989 681.584 218.924 661.866 213.07C659.491 212.449 657.175 212.167 654.909 212.167C639.889 212.168 627.043 224.444 613.878 230.709Z" fill="url(#paint18_linear_4002_1541)"/>
<path d="M1144.74 98.1336C1119.18 103.622 1091.59 117.019 1081.74 142.957C1070.22 169.949 1075.13 206.611 1101.32 223.194C1133.79 246.699 1176.96 235.485 1211.81 252.294C1220.15 254.74 1221.47 263.904 1220.04 271.329C1209.7 290.861 1183.45 289.087 1164.71 287.952C1149.11 286.956 1140.81 272.376 1135.86 259.392C1116.78 261.778 1097.58 263.591 1078.46 265.632C1081.1 292.819 1096.42 319.23 1122.8 329.103C1161.07 343.614 1205.57 337.34 1241.9 319.849C1282.86 300.806 1291.81 238.207 1258.55 208.035C1227.19 186.657 1187.35 190.782 1152.32 180.682C1141.63 177.883 1127.82 166.181 1136.37 154.458C1145.77 142.361 1163.85 143.029 1177.77 142.592C1195.39 141.539 1200.91 162.869 1216.37 166.529C1231.78 167.128 1247.11 164.358 1262.52 163.056C1258.1 145.88 1252.42 127.582 1238.2 115.855C1221.03 100.489 1198.37 95.167 1175.72 95.167C1165.22 95.167 1154.71 96.314 1144.74 98.1336Z" fill="url(#paint19_linear_4002_1541)"/>
<path d="M403.57 492.152C435.071 527.551 473.88 556.183 506.039 591.058C527.585 613.737 501.433 650.14 474.632 652.03C460.653 652.849 450.335 641.895 440.524 633.661C405.888 601.404 371.208 569.186 336.53 536.97C322.993 551.269 309.411 565.61 295.878 579.908C330.933 612.244 365.506 645.088 400.808 677.162C419.125 693.441 442.16 708.878 467.872 707.014C517.777 699.222 558.624 657.11 568.923 608.807C574.237 581.938 556.452 557.513 538.303 539.596C502.997 504.941 465.942 472.135 429.988 438.167C417.984 453.085 390.288 470.376 403.57 492.152Z" fill="url(#paint20_linear_4002_1541)"/>
<path d="M496.389 421.664C489.967 452.637 504.898 483.286 524.487 506.518C551.236 538.177 579.1 568.86 606.25 600.167C621.114 587.241 636.018 574.274 650.878 561.348C626.168 533.091 601.362 504.99 576.608 476.774C566.133 464.656 554.473 450.821 555.376 433.737C557.181 413.285 574.902 400.298 589.031 387.615C575.967 372.81 562.988 358.013 549.964 343.167C526.555 364.555 501.917 389.04 496.389 421.664Z" fill="url(#paint21_linear_4002_1541)"/>
<path d="M529.878 286.542C539.003 299.751 548.124 312.958 557.248 326.167C573.44 314.456 589.683 302.709 605.878 290.997C597.431 280.345 590.448 266.035 576.484 262.187C576.134 262.167 575.788 262.167 575.441 262.167C557.435 262.169 544.207 277.423 529.878 286.542Z" fill="url(#paint22_linear_4002_1541)"/>
<path d="M566.878 340.219C611.173 402.566 655.437 464.87 699.698 527.167C715.744 515.888 731.834 504.579 747.878 493.299C706.295 436.302 667.456 377.156 624.295 321.488C619.562 317.699 614.817 316.167 610.108 316.167C594.66 316.167 579.632 332.688 566.878 340.219Z" fill="url(#paint23_linear_4002_1541)"/>
<path d="M741.878 162.754C748.008 176.892 754.136 191.029 760.262 205.167C778.782 197.806 797.361 190.422 815.878 183.059C809.924 171.402 806.032 156.749 793.148 150.201C790.278 149.481 787.463 149.167 784.67 149.167C769.733 149.167 755.737 158.193 741.878 162.754Z" fill="url(#paint24_linear_4002_1541)"/>
<path d="M805.299 206.635C791.943 209.92 779.615 216.096 766.878 221.167C796.36 291.867 825.829 362.518 855.282 433.167C873.461 425.654 891.684 418.122 909.878 410.612C884.027 348.915 858.523 287.017 832.521 225.394C829.341 215.348 820.342 206.164 809.534 206.167C808.147 206.167 806.73 206.317 805.299 206.635Z" fill="url(#paint25_linear_4002_1541)"/>
<path d="M975.989 155.484C984.803 203.707 1005.05 249.4 1013.13 297.832C1014.73 323.428 984.549 335.332 963.24 332.607C948.486 329.89 940.839 315.757 937.263 302.471C923.242 255.029 910.014 207.413 896.262 159.896C877.497 165.348 858.658 170.819 839.878 176.273C853.106 221.734 865.691 267.316 879.173 312.698C886.401 336.177 898.013 361.511 920.877 373.127C967.28 391.994 1023.62 376.365 1057.03 339.729C1075.18 319.148 1072.37 289.102 1066.09 264.372C1053.82 216.669 1039.15 169.596 1025.92 122.167C1008.07 128.952 975.705 129.806 975.989 155.484Z" fill="url(#paint26_linear_4002_1541)"/>
<path d="M247.179 651.307C217.497 675.343 196.384 712.071 194.884 750.454C194.527 774.278 210.431 793.919 228.154 808.266C237.573 791.671 246.866 774.925 255.564 757.931C245.062 739.51 256.502 718.245 269.436 704.339C275.954 696.741 288.034 692.665 296.559 699.657C307.963 715.687 296.535 734.954 291.41 750.987C280.876 777.76 270.216 809.81 286.003 836.689C304.623 865.308 344.954 881.364 377.218 866.552C406.465 852.43 421.725 821.323 431.311 792.105C439.981 764.791 436.988 732.286 416.426 710.8C390.423 683.844 353.555 671.442 321.925 652.434C309.89 644.807 295.47 640.167 281.295 640.167C269.208 640.167 257.296 643.54 247.179 651.307ZM326.298 782.048C329.13 761.579 335.537 741.742 338.264 721.208C354.114 730.599 373.979 737.933 381.374 756.356C390.001 774.504 382.663 796.168 369.431 810.125C365.243 813.003 360.647 814.277 356.063 814.277C340.035 814.277 324.145 798.731 326.298 782.048Z" fill="url(#paint27_linear_4002_1541)"/>
</g>
<defs>
<linearGradient id="paint0_linear_4002_1541" x1="1251.37" y1="2357.17" x2="1251.37" y2="2058.17" gradientUnits="userSpaceOnUse">
<stop stop-color="#F39113"/>
<stop offset="0.177419" stop-color="#EA7118"/>
<stop offset="0.322581" stop-color="#DB511E"/>
<stop offset="0.532258" stop-color="#DA4C1F"/>
<stop offset="0.774193" stop-color="#E42F23"/>
<stop offset="1" stop-color="#D02725"/>
</linearGradient>
<linearGradient id="paint1_linear_4002_1541" x1="1508.89" y1="2323.17" x2="1508.89" y2="2058.17" gradientUnits="userSpaceOnUse">
<stop stop-color="#F39113"/>
<stop offset="0.177419" stop-color="#EA7118"/>
<stop offset="0.322581" stop-color="#DB511E"/>
<stop offset="0.532258" stop-color="#DA4C1F"/>
<stop offset="0.774193" stop-color="#E42F23"/>
<stop offset="1" stop-color="#D02725"/>
</linearGradient>
<linearGradient id="paint2_linear_4002_1541" x1="991.325" y1="652.985" x2="1346.35" y2="830.435" gradientUnits="userSpaceOnUse">
<stop stop-color="#141311"/>
<stop offset="0.0107527" stop-color="#141311"/>
<stop offset="0.365591" stop-color="#1E1C1B"/>
<stop offset="0.709677" stop-color="#433F41"/>
<stop offset="1" stop-color="#776D74"/>
</linearGradient>
<linearGradient id="paint3_linear_4002_1541" x1="1647.91" y1="1859.98" x2="1505.96" y2="1516.78" gradientUnits="userSpaceOnUse">
<stop stop-color="#D02725"/>
<stop offset="0.225807" stop-color="#E42F23"/>
<stop offset="0.467742" stop-color="#DA4C1F"/>
<stop offset="0.677419" stop-color="#DB511E"/>
<stop offset="0.822581" stop-color="#EA7118"/>
<stop offset="1" stop-color="#F39113"/>
</linearGradient>
<linearGradient id="paint4_linear_4002_1541" x1="926.878" y1="1727.66" x2="1468.88" y2="1727.66" gradientUnits="userSpaceOnUse">
<stop stop-color="#776D74"/>
<stop offset="0.290323" stop-color="#433F41"/>
<stop offset="0.634409" stop-color="#1E1C1B"/>
<stop offset="0.989247" stop-color="#141311"/>
<stop offset="1" stop-color="#141311"/>
</linearGradient>
<linearGradient id="paint5_linear_4002_1541" x1="1323.03" y1="1768.15" x2="1399.83" y2="967.124" gradientUnits="userSpaceOnUse">
<stop stop-color="#141311"/>
<stop offset="0.0107527" stop-color="#141311"/>
<stop offset="0.365591" stop-color="#1E1C1B"/>
<stop offset="0.709677" stop-color="#433F41"/>
<stop offset="1" stop-color="#776D74"/>
</linearGradient>
<linearGradient id="paint6_linear_4002_1541" x1="1790.42" y1="1362.92" x2="1364.39" y2="827.768" gradientUnits="userSpaceOnUse">
<stop stop-color="#DDD0CA"/>
<stop offset="0.306452" stop-color="#F2E3DD"/>
<stop offset="0.655914" stop-color="#F3E6E1"/>
<stop offset="1" stop-color="#F7EFEB"/>
</linearGradient>
<linearGradient id="paint7_linear_4002_1541" x1="1381.29" y1="1074.79" x2="1634.79" y2="814.402" gradientUnits="userSpaceOnUse">
<stop stop-color="#FBCB38"/>
<stop offset="0.182796" stop-color="#F89F22"/>
<stop offset="0.397849" stop-color="#F17815"/>
<stop offset="0.704301" stop-color="#EE591C"/>
<stop offset="1" stop-color="#EA451F"/>
</linearGradient>
<linearGradient id="paint8_linear_4002_1541" x1="1441.61" y1="1786.41" x2="1210.96" y2="1456.22" gradientUnits="userSpaceOnUse">
<stop stop-color="#D02725"/>
<stop offset="0.225807" stop-color="#E42F23"/>
<stop offset="0.467742" stop-color="#DA4C1F"/>
<stop offset="0.677419" stop-color="#DB511E"/>
<stop offset="0.822581" stop-color="#EA7118"/>
<stop offset="1" stop-color="#F39113"/>
</linearGradient>
<linearGradient id="paint9_linear_4002_1541" x1="1515.05" y1="185.734" x2="3152.46" y2="272.492" gradientUnits="userSpaceOnUse">
<stop stop-color="#EA451F"/>
<stop offset="0.295699" stop-color="#EE591C"/>
<stop offset="0.602151" stop-color="#F17815"/>
<stop offset="0.817204" stop-color="#F89F22"/>
<stop offset="1" stop-color="#FBCB38"/>
</linearGradient>
<linearGradient id="paint10_linear_4002_1541" x1="1637.12" y1="82.182" x2="2932.5" y2="1092.08" gradientUnits="userSpaceOnUse">
<stop stop-color="#EA451F"/>
<stop offset="0.295699" stop-color="#EE591C"/>
<stop offset="0.602151" stop-color="#F17815"/>
<stop offset="0.817204" stop-color="#F89F22"/>
<stop offset="1" stop-color="#FBCB38"/>
</linearGradient>
<linearGradient id="paint11_linear_4002_1541" x1="1540" y1="206.834" x2="3105.82" y2="686.602" gradientUnits="userSpaceOnUse">
<stop stop-color="#EA451F"/>
<stop offset="0.295699" stop-color="#EE591C"/>
<stop offset="0.602151" stop-color="#F17815"/>
<stop offset="0.817204" stop-color="#F89F22"/>
<stop offset="1" stop-color="#FBCB38"/>
</linearGradient>
<linearGradient id="paint12_linear_4002_1541" x1="1735.57" y1="-35.2223" x2="2736.25" y2="1272.45" gradientUnits="userSpaceOnUse">
<stop stop-color="#EA451F"/>
<stop offset="0.295699" stop-color="#EE591C"/>
<stop offset="0.602151" stop-color="#F17815"/>
<stop offset="0.817204" stop-color="#F89F22"/>
<stop offset="1" stop-color="#FBCB38"/>
</linearGradient>
<linearGradient id="paint13_linear_4002_1541" x1="1555.92" y1="223.568" x2="3018.55" y2="977.239" gradientUnits="userSpaceOnUse">
<stop stop-color="#EA451F"/>
<stop offset="0.295699" stop-color="#EE591C"/>
<stop offset="0.602151" stop-color="#F17815"/>
<stop offset="0.817204" stop-color="#F89F22"/>
<stop offset="1" stop-color="#FBCB38"/>
</linearGradient>
<linearGradient id="paint14_linear_4002_1541" x1="1658.78" y1="61.6312" x2="2837.3" y2="1185.8" gradientUnits="userSpaceOnUse">
<stop stop-color="#EA451F"/>
<stop offset="0.295699" stop-color="#EE591C"/>
<stop offset="0.602151" stop-color="#F17815"/>
<stop offset="0.817204" stop-color="#F89F22"/>
<stop offset="1" stop-color="#FBCB38"/>
</linearGradient>
<linearGradient id="paint15_linear_4002_1541" x1="1871.09" y1="-129.409" x2="2629.19" y2="1320.21" gradientUnits="userSpaceOnUse">
<stop stop-color="#EA451F"/>
<stop offset="0.295699" stop-color="#EE591C"/>
<stop offset="0.602151" stop-color="#F17815"/>
<stop offset="0.817204" stop-color="#F89F22"/>
<stop offset="1" stop-color="#FBCB38"/>
</linearGradient>
<linearGradient id="paint16_linear_4002_1541" x1="2145.23" y1="-238.983" x2="2579.72" y2="1340.47" gradientUnits="userSpaceOnUse">
<stop stop-color="#EA451F"/>
<stop offset="0.295699" stop-color="#EE591C"/>
<stop offset="0.602151" stop-color="#F17815"/>
<stop offset="0.817204" stop-color="#F89F22"/>
<stop offset="1" stop-color="#FBCB38"/>
</linearGradient>
<linearGradient id="paint17_linear_4002_1541" x1="872.959" y1="1610.63" x2="233.811" y2="1025.99" gradientUnits="userSpaceOnUse">
<stop stop-color="#141311"/>
<stop offset="0.0107527" stop-color="#141311"/>
<stop offset="0.365591" stop-color="#1E1C1B"/>
<stop offset="0.709677" stop-color="#433F41"/>
<stop offset="1" stop-color="#776D74"/>
</linearGradient>
<linearGradient id="paint18_linear_4002_1541" x1="1443.64" y1="992.031" x2="801.249" y2="405.386" gradientUnits="userSpaceOnUse">
<stop stop-color="#141311"/>
<stop offset="0.0107527" stop-color="#141311"/>
<stop offset="0.365591" stop-color="#1E1C1B"/>
<stop offset="0.709677" stop-color="#433F41"/>
<stop offset="1" stop-color="#776D74"/>
</linearGradient>
<linearGradient id="paint19_linear_4002_1541" x1="1703.02" y1="702.818" x2="1062.55" y2="119.066" gradientUnits="userSpaceOnUse">
<stop stop-color="#141311"/>
<stop offset="0.0107527" stop-color="#141311"/>
<stop offset="0.365591" stop-color="#1E1C1B"/>
<stop offset="0.709677" stop-color="#433F41"/>
<stop offset="1" stop-color="#776D74"/>
</linearGradient>
<linearGradient id="paint20_linear_4002_1541" x1="1197.24" y1="1264.37" x2="556.191" y2="673.85" gradientUnits="userSpaceOnUse">
<stop stop-color="#141311"/>
<stop offset="0.0107527" stop-color="#141311"/>
<stop offset="0.365591" stop-color="#1E1C1B"/>
<stop offset="0.709677" stop-color="#433F41"/>
<stop offset="1" stop-color="#776D74"/>
</linearGradient>
<linearGradient id="paint21_linear_4002_1541" x1="1312.15" y1="1138.64" x2="669.894" y2="550.096" gradientUnits="userSpaceOnUse">
<stop stop-color="#141311"/>
<stop offset="0.0107527" stop-color="#141311"/>
<stop offset="0.365591" stop-color="#1E1C1B"/>
<stop offset="0.709677" stop-color="#433F41"/>
<stop offset="1" stop-color="#776D74"/>
</linearGradient>
<linearGradient id="paint22_linear_4002_1541" x1="1396.01" y1="1066.2" x2="738.539" y2="479.9" gradientUnits="userSpaceOnUse">
<stop stop-color="#141311"/>
<stop offset="0.0107527" stop-color="#141311"/>
<stop offset="0.365591" stop-color="#1E1C1B"/>
<stop offset="0.709677" stop-color="#433F41"/>
<stop offset="1" stop-color="#776D74"/>
</linearGradient>
<linearGradient id="paint23_linear_4002_1541" x1="1370.29" y1="1067.23" x2="731.505" y2="481.245" gradientUnits="userSpaceOnUse">
<stop stop-color="#141311"/>
<stop offset="0.0107527" stop-color="#141311"/>
<stop offset="0.365591" stop-color="#1E1C1B"/>
<stop offset="0.709677" stop-color="#433F41"/>
<stop offset="1" stop-color="#776D74"/>
</linearGradient>
<linearGradient id="paint24_linear_4002_1541" x1="1557.4" y1="859.282" x2="931.826" y2="263.152" gradientUnits="userSpaceOnUse">
<stop stop-color="#141311"/>
<stop offset="0.0107527" stop-color="#141311"/>
<stop offset="0.365591" stop-color="#1E1C1B"/>
<stop offset="0.709677" stop-color="#433F41"/>
<stop offset="1" stop-color="#776D74"/>
</linearGradient>
<linearGradient id="paint25_linear_4002_1541" x1="1502.7" y1="924.933" x2="862.246" y2="337.835" gradientUnits="userSpaceOnUse">
<stop stop-color="#141311"/>
<stop offset="0.0107527" stop-color="#141311"/>
<stop offset="0.365591" stop-color="#1E1C1B"/>
<stop offset="0.709677" stop-color="#433F41"/>
<stop offset="1" stop-color="#776D74"/>
</linearGradient>
<linearGradient id="paint26_linear_4002_1541" x1="1595.03" y1="820.082" x2="952.776" y2="237.843" gradientUnits="userSpaceOnUse">
<stop stop-color="#141311"/>
<stop offset="0.0107527" stop-color="#141311"/>
<stop offset="0.365591" stop-color="#1E1C1B"/>
<stop offset="0.709677" stop-color="#433F41"/>
<stop offset="1" stop-color="#776D74"/>
</linearGradient>
<linearGradient id="paint27_linear_4002_1541" x1="1052.71" y1="1420.15" x2="412.588" y2="830.878" gradientUnits="userSpaceOnUse">
<stop stop-color="#141311"/>
<stop offset="0.0107527" stop-color="#141311"/>
<stop offset="0.365591" stop-color="#1E1C1B"/>
<stop offset="0.709677" stop-color="#433F41"/>
<stop offset="1" stop-color="#776D74"/>
</linearGradient>
<clipPath id="clip0_4002_1541">
<rect width="2667" height="2430" fill="white"/>
</clipPath>
</defs>
</svg>
