<svg width="2667" height="2667" viewBox="0 0 2667 2667" fill="none" xmlns="http://www.w3.org/2000/svg">
<path d="M1669.75 1068.12L1535 1022.23L1432.33 1033.14L1347.42 1104.87L1366.09 1118.83L1347.42 1136.31L1327.26 1188.43L1382.3 1291.95L1407.61 1288.87C1361.32 1209.89 1382.25 1152.14 1388.11 1139.09C1388.94 1137.26 1389.47 1136.31 1389.47 1136.31C1389.47 1136.31 1399.49 1100.25 1456.48 1104.87C1513.48 1109.48 1526.63 1165.83 1585.83 1153.11C1645.02 1140.38 1680.53 1114.45 1680.53 1114.45L1669.75 1068.12Z" fill="#EF3923"/>
<path d="M1597.37 909.366C1540.54 896.428 1490.66 895.653 1447.6 902.032C1438.16 908.525 1428.13 916.109 1418.09 924.812C1481.88 962.368 1555.37 1019.53 1592.01 1097.23C1622.13 1143.39 1615.07 1210.25 1615.07 1210.25C1825.49 960.496 1597.37 909.366 1597.37 909.366Z" fill="#EF3923"/>
<path d="M1597.37 909.366C1567.74 902.62 1540.01 899.205 1514.13 898.364C1561.46 948.408 1609.93 1032.96 1614.84 1171.04C1616.84 1193.52 1615.07 1210.25 1615.07 1210.25C1825.49 960.496 1597.37 909.366 1597.37 909.366Z" fill="#E73022"/>
<path d="M1625.8 919.429C1671.71 1029.4 1615.07 1210.25 1615.07 1210.25C1776.76 1018.34 1679.52 943.706 1625.8 919.429Z" fill="#C52824"/>
<path d="M1280.76 1845.44L1290.59 2044.83H1318.12L1334.01 1845.44H1280.76Z" fill="url(#paint0_linear_4002_1508)"/>
<path d="M1451.89 1845.44L1461.72 2022.43H1489.25L1505.14 1845.44H1451.89Z" fill="url(#paint1_linear_4002_1508)"/>
<path d="M1170.5 800.088C1170.5 800.088 1093.08 874.643 1183.61 947.881C1183.61 947.881 1102.33 932.148 1101.02 877.083C1101.02 877.083 1098.39 845.619 1125.93 818.083C1125.93 818.083 1144.28 793.895 1118.06 800.088C1118.06 800.088 1070.26 814.149 1065.97 879.705C1065.97 879.705 1064.3 945.26 1137.73 968.859C1137.73 968.859 1070.21 978.693 1040.05 915.759C1040.05 915.759 1032.84 898.715 1021.69 907.892C1021.69 907.892 1005.31 916.415 1032.18 957.059C1032.18 957.059 1076.1 1026.55 1171.16 1018.03C1171.16 1018.03 1124.68 1063.91 1065.97 1042.28C1065.97 1042.28 1045.95 1031.13 1043.98 1032.45C1043.98 1032.45 1030.87 1027.42 1038.08 1054.19C1038.08 1054.19 1047.7 1084.67 1129.2 1075.71C1129.2 1075.71 1187.5 1067.82 1222.92 1042.26C1258.35 1016.71 1334.01 1019.99 1334.01 1019.99L1447.6 902.032C1447.6 902.032 1201.97 974.105 1184.92 875.771C1184.92 875.771 1170.5 825.949 1226.88 806.284C1226.88 806.284 1257.03 799.729 1266.21 818.083C1266.21 818.083 1276.7 832.505 1291.12 824.639C1291.12 824.639 1309.48 807.596 1287.19 791.861C1287.19 791.861 1266.28 772.291 1234.7 772.287C1216.26 772.285 1194.19 778.955 1170.5 800.088Z" fill="url(#paint2_linear_4002_1508)"/>
<path d="M1470.99 1450.14C1394.57 1476.7 1354.15 1560.22 1380.72 1636.68C1407.29 1713.14 1490.8 1753.6 1567.22 1727.04C1643.66 1700.47 1684.07 1616.96 1657.5 1540.5C1636.46 1479.95 1579.73 1441.98 1519.08 1441.99C1503.13 1441.99 1486.91 1444.61 1470.99 1450.14Z" fill="url(#paint3_linear_4002_1508)"/>
<path d="M1091.97 1508.43V1576.02C1091.97 1576.02 1125.4 1697.95 1125.4 1703.85C1125.4 1709.75 1186.36 1780.13 1186.36 1780.13H1324.02L1428.25 1745.29L1451.89 1690.08L1385.09 1575.35C1386.94 1676.11 1265.31 1678.28 1265.31 1678.28C1125.96 1692.05 1108.78 1471.8 1108.78 1471.8L1091.97 1508.43Z" fill="url(#paint4_linear_4002_1508)"/>
<path d="M1239.46 1019.49C1054.61 1253.51 1306.42 1533.94 1306.42 1533.94C1408.69 1637.95 1396.45 1691.27 1396.45 1691.27C1395.57 1744.59 1312.22 1745.15 1312.22 1745.15C1084.11 1739.25 1108.78 1471.8 1108.78 1471.8C1029.97 1625.54 1084.11 1721.54 1084.11 1721.54C1119.5 1827.74 1310.26 1867.07 1310.26 1867.07C1577.71 1918.2 1636.7 1719.58 1636.7 1719.58C1685.87 1560.29 1536.41 1430.5 1536.41 1430.5L1497.08 1391.17C1457.75 1351.84 1422.35 1308.57 1422.35 1308.57C1384.98 1261.38 1377.12 1206.32 1377.12 1206.32C1359.42 1062.76 1493.15 1054.89 1493.15 1054.89C1632.77 1043.09 1615.07 1210.25 1615.07 1210.25C1825.49 960.496 1597.37 909.367 1597.37 909.367C1562.81 901.499 1530.83 898.128 1501.38 898.13C1324.71 898.143 1239.46 1019.49 1239.46 1019.49Z" fill="url(#paint5_linear_4002_1508)"/>
<path d="M1447.6 902.032C1447.6 902.032 1211.93 982.123 1219.8 1178.78C1219.8 1178.78 1204.07 1310.54 1390.77 1440.33C1390.77 1440.33 1676.04 1609.45 1616.95 1760.76C1631.45 1737.28 1636.7 1719.58 1636.7 1719.58C1685.87 1560.29 1536.41 1430.5 1536.41 1430.5L1497.08 1391.17C1457.75 1351.84 1422.35 1308.57 1422.35 1308.57C1384.99 1261.38 1377.12 1206.32 1377.12 1206.32C1359.42 1062.76 1493.15 1054.89 1493.15 1054.89C1632.77 1043.09 1615.07 1210.25 1615.07 1210.25C1825.49 960.496 1597.38 909.367 1597.38 909.367C1562.82 901.5 1530.84 898.13 1501.4 898.13C1482.41 898.13 1464.49 899.531 1447.6 902.032" fill="url(#paint6_linear_4002_1508)"/>
<path d="M1447.6 902.032C1370.28 955.216 1253.24 1081.45 1415.78 1299.78C1384.04 1254.8 1377.12 1206.32 1377.12 1206.32C1359.42 1062.76 1493.14 1054.89 1493.14 1054.89C1632.77 1043.09 1615.07 1210.25 1615.07 1210.25C1825.49 960.496 1597.37 909.367 1597.37 909.367C1562.82 901.5 1530.84 898.129 1501.39 898.129C1482.41 898.129 1464.48 899.531 1447.6 902.032Z" fill="url(#paint7_linear_4002_1508)"/>
<path d="M1257.22 1460.25C1255.99 1460.68 1254.77 1461.12 1253.55 1461.58C1281.76 1506.48 1306.42 1533.94 1306.42 1533.94C1408.69 1637.95 1396.45 1691.27 1396.45 1691.27C1396.2 1706.39 1389.32 1717.26 1379.59 1725.08C1438.69 1690.44 1467.08 1617.8 1443.73 1550.6C1422.69 1490.06 1365.96 1452.1 1305.31 1452.09C1289.36 1452.09 1273.14 1454.72 1257.22 1460.25Z" fill="url(#paint8_linear_4002_1508)"/>
<path d="M1357.97 513.993C1353.56 572.771 1350.48 631.668 1346.59 690.481C1393.55 693.44 1440.51 696.396 1487.48 699.352C1488.22 687.611 1488.96 675.871 1489.7 664.129C1455.76 661.992 1421.87 659.859 1387.94 657.721C1389.01 640.776 1390.07 623.792 1391.14 606.841C1412.08 607.613 1432.98 610.657 1453.89 609.931C1469.88 607.56 1468.51 588.612 1469.91 576.477C1444.4 574.796 1418.87 573.264 1393.36 571.62C1394.18 558.591 1395 545.517 1395.83 532.485C1429.75 534.621 1463.65 536.756 1497.58 538.892C1498.32 527.151 1499.06 515.411 1499.8 503.671C1459.12 501.341 1418.5 498.077 1377.83 496.305C1377.09 496.212 1376.36 496.167 1375.63 496.167C1366.03 496.167 1357.93 504.159 1357.97 513.993Z" fill="url(#paint9_linear_4002_1508)"/>
<path d="M1775.59 823.379C1785.79 831.537 1795.99 839.696 1806.21 847.875C1843.53 800.735 1881.78 754.355 1918.51 706.808C1927.3 690.683 1909.38 678.359 1898.1 670.24C1857.26 721.287 1816.43 772.332 1775.59 823.379Z" fill="url(#paint10_linear_4002_1508)"/>
<path d="M1569.62 639.989C1546.37 660.345 1522.2 679.619 1498.8 699.801C1513.79 704.559 1528.74 709.303 1543.73 714.059C1557.15 701.203 1570.59 688.395 1584.29 675.832C1588.05 694.053 1591.72 712.295 1595.44 730.544C1610.09 735.071 1624.69 739.747 1639.31 744.384C1630.86 714.593 1623 684.657 1614.66 654.817C1641.54 632.075 1669.29 610.317 1696.22 587.553C1679.08 584.665 1657.71 567.599 1642.27 583.065C1628.34 595.348 1614.44 607.64 1600.87 620.327C1597.24 602.965 1593.52 585.659 1589.95 568.271C1575.93 563.824 1561.95 559.389 1547.97 554.952C1554.97 583.34 1562.58 611.592 1569.62 639.989Z" fill="url(#paint11_linear_4002_1508)"/>
<path d="M1975.3 899.519C1952.91 915.471 1931.13 932.32 1908.99 948.615C1916.79 959.088 1924.59 969.563 1932.41 980.068C1952.32 965.24 1972.21 950.38 1992.12 935.553C2000.74 929.273 2010.53 922.131 2021.86 923.623C2035.33 925.903 2043.03 938.264 2050.7 948.243C2061.16 940.359 2071.66 932.588 2082.16 924.764C2069.2 908.211 2054.25 890.693 2032.92 885.36C2028.36 884.04 2023.76 883.441 2019.16 883.443C2003.46 883.443 1987.95 890.443 1975.3 899.519Z" fill="url(#paint12_linear_4002_1508)"/>
<path d="M1733.95 639.484C1713.02 645.099 1699.37 663.875 1689.33 681.857C1667.61 722.449 1646.31 763.26 1624.69 803.907C1633.33 808.122 1641.63 813.307 1650.94 816.096C1660.53 816.826 1666.18 807.739 1670.27 800.503C1679.04 784.331 1687.65 768.036 1695.86 751.577C1698.72 789.145 1745.65 810.712 1777.36 792.567C1800.29 778.474 1814.02 753.348 1823.17 728.823C1831.2 707.077 1827.57 680.139 1809.47 664.452C1793.02 649.7 1770.99 637.735 1748.49 637.734C1743.65 637.734 1738.79 638.286 1733.95 639.484ZM1744.05 760.77C1731.69 759.647 1718.9 752.043 1715.13 739.715C1711.14 722.171 1719.8 704.789 1729.15 690.529C1736.05 680.739 1747.1 671.006 1760.01 673.262C1773.48 674.882 1786.41 685.487 1787.69 699.514C1788.94 715.787 1780.84 731.026 1771.73 743.907C1765.23 752.399 1755.91 760.775 1744.57 760.775C1744.4 760.775 1744.23 760.774 1744.05 760.775" fill="url(#paint13_linear_4002_1508)"/>
<path d="M1898.51 768.549C1876.87 780.305 1858.66 798.48 1846.21 819.748C1836.6 835.952 1833.59 856.845 1842.52 874.04C1854.7 897.787 1877.93 919.171 1905.89 919.751C1930.01 919.389 1950.5 903.539 1966.54 886.972C1981.33 870.891 1995.36 851.052 1994.9 828.204C1993.81 803.76 1975.85 783.471 1956.2 770.828C1947.09 764.688 1936.3 761.605 1925.5 761.604C1916.15 761.604 1906.79 763.913 1898.51 768.549ZM1892.33 878.441C1882.89 873.519 1874.94 863.417 1876.38 852.333C1878.67 836.052 1890.62 823.448 1902.44 813.061C1911.8 805.037 1924.43 797.86 1937.13 801.691C1948.99 806.028 1958.43 819.223 1955.41 832.101C1950.49 849.268 1937.11 862.504 1923.15 872.832C1917.15 877.193 1909.53 880.593 1902.01 880.593C1898.72 880.593 1895.44 879.944 1892.33 878.441Z" fill="url(#paint14_linear_4002_1508)"/>
<path d="M2019.56 976.973C1998.26 988.977 1978.14 1009.71 1978.72 1035.74C1979.76 1058.26 1991.21 1080.2 2008.38 1094.75C2023.97 1107.41 2045.41 1108.3 2064.25 1104.04C2057.01 1090.88 2052.57 1073.58 2036.81 1068.23C2023.75 1063.39 2015.1 1050.07 2015.6 1036.28C2017.29 1024.21 2028.17 1017.08 2037.38 1010.8C2052.29 1039.73 2067.09 1068.72 2082.04 1097.63C2102.32 1087.35 2123.46 1075.03 2134.63 1054.3C2142.98 1038.02 2141.08 1018.27 2133.8 1001.96C2125.72 982.557 2110.56 963.682 2088.98 959.338C2084.62 958.35 2080.26 957.903 2075.93 957.903C2056.01 957.903 2036.6 967.348 2019.56 976.973ZM2061.93 998.099C2073.94 995.721 2089.36 994.411 2096.34 1006.96C2108.88 1020.22 2102.21 1040.27 2087.97 1049.04C2079.18 1032.09 2070.33 1015.21 2061.93 998.099Z" fill="url(#paint15_linear_4002_1508)"/>
<path d="M2131.68 1099.97C2107.88 1101.71 2083.87 1108 2063.63 1121C2044.99 1133.46 2035.41 1156.69 2038.39 1178.75C2041.44 1203.25 2050.77 1230.28 2073.08 1243.7C2090.66 1254.57 2112.76 1251.79 2131.82 1246.85C2167.21 1237.13 2202.95 1228.53 2238.14 1218.21C2254.5 1209.85 2247.36 1190.12 2243.33 1176.66C2222.84 1182.14 2202.31 1187.48 2181.84 1193.07C2202.55 1171.87 2198.27 1136.49 2179.36 1115.71C2168.32 1104.37 2152.4 1099.8 2136.86 1099.8C2135.12 1099.8 2133.4 1099.86 2131.68 1099.97ZM2082.2 1199.94C2072.51 1187.91 2070.38 1167.82 2082.8 1156.85C2095.48 1146.06 2112.35 1141.17 2128.7 1139.91C2139.5 1138.87 2151.72 1142.57 2157.55 1152.33C2165.37 1164.34 2167.3 1182.89 2155.8 1193.37C2144.42 1203.87 2128.61 1207.9 2113.57 1209.78C2111.75 1209.99 2109.89 1210.09 2108.01 1210.09C2098.47 1210.09 2088.59 1207.29 2082.2 1199.94Z" fill="url(#paint16_linear_4002_1508)"/>
<path d="M514.375 1064.3C557.193 1092.79 600.136 1121.15 642.913 1149.74C591.621 1145 540.305 1140.09 488.927 1135.95C484.595 1148.73 479.403 1161.25 475.675 1174.19C472.303 1185.11 480.051 1197.26 490.937 1200.01C545.143 1219.38 599.481 1238.52 653.7 1257.86C658.071 1245.55 662.456 1233.21 666.825 1220.9C617.421 1202.53 566.86 1187.19 518.316 1166.62C571.763 1175.49 626.072 1177.47 679.767 1184.47C684.269 1171.79 688.772 1159.12 693.272 1146.44C647.309 1117.67 603.203 1086.03 556.945 1057.74C607.096 1074.01 656.405 1092.77 706.199 1110.05C710.571 1097.74 714.953 1085.4 719.325 1073.09C657.723 1051.21 596.16 1029.35 534.56 1007.47C527.827 1026.43 521.108 1045.35 514.375 1064.3Z" fill="url(#paint17_linear_4002_1508)"/>
<path d="M883.247 630.504C911.796 679.18 940.132 728.025 968.781 776.645C973.375 785.039 982.44 793.324 992.713 790.224C1008.43 785.4 1022.11 775.944 1035.9 767.288C1031.49 759.739 1027.07 752.189 1022.66 744.641C1015.51 747.871 1006.21 757.3 998.735 749.635C982.82 724.284 968.444 697.983 953.103 672.288C957.527 667.891 964.128 664.576 965.468 657.931C968.027 650.028 962.324 642.917 959.651 635.937C952.725 639.944 945.819 643.981 938.945 648C931.736 637.997 928.184 622.676 915.097 618.788C913.521 618.375 911.984 618.188 910.48 618.188C900.511 618.189 891.985 626.343 883.247 630.504Z" fill="url(#paint18_linear_4002_1508)"/>
<path d="M1236.38 541.948C1219.34 545.604 1200.94 554.527 1194.37 571.804C1186.69 589.783 1189.96 614.203 1207.43 625.249C1229.08 640.905 1257.87 633.436 1281.11 644.632C1286.67 646.261 1287.55 652.365 1286.6 657.311C1279.7 670.321 1262.2 669.139 1249.7 668.383C1239.3 667.72 1233.76 658.008 1230.46 649.36C1217.74 650.949 1204.93 652.157 1192.18 653.516C1193.94 671.625 1204.16 689.217 1221.75 695.793C1247.27 705.459 1276.95 701.28 1301.18 689.629C1328.49 676.945 1334.46 635.249 1312.28 615.152C1291.37 600.912 1264.8 603.66 1241.44 596.932C1234.31 595.068 1225.1 587.273 1230.8 579.465C1237.07 571.407 1249.13 571.852 1258.41 571.561C1270.16 570.86 1273.84 585.067 1284.15 587.505C1294.43 587.904 1304.65 586.059 1314.93 585.192C1311.98 573.751 1308.19 561.563 1298.71 553.752C1287.26 543.517 1272.15 539.972 1257.04 539.972C1250.04 539.972 1243.03 540.736 1236.38 541.948Z" fill="url(#paint19_linear_4002_1508)"/>
<path d="M743.592 804.465C764.378 828.045 789.986 847.117 811.206 870.348C825.423 885.455 808.167 909.704 790.482 910.963C781.258 911.509 774.45 904.212 767.976 898.727C745.122 877.24 722.238 855.779 699.356 834.319C690.424 843.844 681.462 853.397 672.532 862.921C695.663 884.461 718.476 906.339 741.77 927.704C753.856 938.548 769.056 948.831 786.022 947.589C818.951 942.399 845.904 914.347 852.7 882.171C856.206 864.273 844.471 848.003 832.495 836.068C809.199 812.984 784.748 791.131 761.024 768.504C753.103 778.441 734.828 789.959 743.592 804.465Z" fill="url(#paint20_linear_4002_1508)"/>
<path d="M805.49 756.844C801.24 777.428 811.121 797.797 824.084 813.236C841.786 834.276 860.225 854.667 878.192 875.473C888.028 866.883 897.891 858.265 907.725 849.675C891.373 830.896 874.957 812.221 858.576 793.469C851.644 785.416 843.928 776.221 844.525 764.868C845.72 751.276 857.447 742.645 866.797 734.216C858.152 724.377 849.563 714.543 840.944 704.677C825.453 718.891 809.148 735.163 805.49 756.844Z" fill="url(#paint21_linear_4002_1508)"/>
<path d="M827.5 667.233C833.545 675.785 839.588 684.335 845.632 692.887C856.359 685.305 867.12 677.7 877.849 670.117C872.253 663.221 867.627 653.956 858.376 651.465C858.144 651.452 857.915 651.452 857.685 651.452C845.756 651.453 836.993 661.328 827.5 667.232" fill="url(#paint22_linear_4002_1508)"/>
<path d="M852.397 702.461C881.841 744.124 911.264 785.758 940.685 827.388C951.351 819.851 962.046 812.294 972.711 804.756C945.07 766.668 919.253 727.144 890.563 689.944C887.417 687.412 884.263 686.388 881.133 686.388C870.864 686.388 860.875 697.428 852.397 702.461Z" fill="url(#paint23_linear_4002_1508)"/>
<path d="M968.824 583.98C972.84 593.652 976.854 603.323 980.867 612.995C992.999 607.959 1005.17 602.908 1017.3 597.871C1013.4 589.896 1010.85 579.872 1002.41 575.392C1000.53 574.9 998.686 574.685 996.856 574.685C987.071 574.685 977.903 580.86 968.824 583.98Z" fill="url(#paint24_linear_4002_1508)"/>
<path d="M1010.85 614.138C1001.99 616.327 993.811 620.443 985.361 623.823C1004.92 670.941 1024.47 718.027 1044.01 765.111C1056.07 760.104 1068.16 755.084 1080.23 750.079C1063.08 708.961 1046.16 667.709 1028.91 626.64C1026.8 619.945 1020.83 613.824 1013.66 613.826C1012.74 613.826 1011.8 613.926 1010.85 614.138Z" fill="url(#paint25_linear_4002_1508)"/>
<path d="M1124.65 580.579C1130.54 612.595 1144.07 642.932 1149.47 675.087C1150.54 692.081 1130.37 699.984 1116.13 698.175C1106.27 696.371 1101.16 686.988 1098.77 678.167C1089.4 646.669 1080.56 615.056 1071.37 583.508C1058.83 587.128 1046.24 590.76 1033.69 594.381C1042.53 624.564 1050.94 654.827 1059.95 684.957C1064.78 700.545 1072.54 717.365 1087.82 725.077C1118.83 737.603 1156.48 727.227 1178.81 702.903C1190.94 689.239 1189.06 669.291 1184.86 652.872C1176.66 621.201 1166.86 589.948 1158.02 558.459C1146.09 562.964 1124.46 563.531 1124.65 580.579Z" fill="url(#paint26_linear_4002_1508)"/>
<path d="M639.791 909.98C620.165 926.013 606.205 950.513 605.213 976.116C604.977 992.008 615.493 1005.11 627.211 1014.68C633.439 1003.61 639.584 992.44 645.335 981.104C638.391 968.816 645.955 954.631 654.507 945.355C658.817 940.287 666.804 937.568 672.441 942.232C679.981 952.925 672.425 965.777 669.036 976.472C662.071 994.331 655.023 1015.71 665.461 1033.64C677.773 1052.73 704.44 1063.44 725.773 1053.56C745.111 1044.14 755.201 1023.39 761.539 1003.9C767.272 985.68 765.293 963.997 751.697 949.665C734.504 931.684 710.127 923.411 689.213 910.732C681.255 905.644 671.721 902.549 662.348 902.549C654.356 902.549 646.48 904.799 639.791 909.98ZM692.104 997.191C693.977 983.537 698.213 970.305 700.016 956.608C710.496 962.872 723.631 967.764 728.521 980.053C734.225 992.159 729.373 1006.61 720.624 1015.92C717.855 1017.84 714.816 1018.69 711.785 1018.69C701.187 1018.69 690.681 1008.32 692.104 997.191Z" fill="url(#paint27_linear_4002_1508)"/>
<defs>
<linearGradient id="paint0_linear_4002_1508" x1="1307.38" y1="2044.83" x2="1307.38" y2="1845.44" gradientUnits="userSpaceOnUse">
<stop stop-color="#F39113"/>
<stop offset="0.177419" stop-color="#EA7118"/>
<stop offset="0.322581" stop-color="#DB511E"/>
<stop offset="0.532258" stop-color="#DA4C1F"/>
<stop offset="0.774193" stop-color="#E42F23"/>
<stop offset="1" stop-color="#D02725"/>
</linearGradient>
<linearGradient id="paint1_linear_4002_1508" x1="1478.52" y1="2022.43" x2="1478.52" y2="1845.44" gradientUnits="userSpaceOnUse">
<stop stop-color="#F39113"/>
<stop offset="0.177419" stop-color="#EA7118"/>
<stop offset="0.322581" stop-color="#DB511E"/>
<stop offset="0.532258" stop-color="#DA4C1F"/>
<stop offset="0.774193" stop-color="#E42F23"/>
<stop offset="1" stop-color="#D02725"/>
</linearGradient>
<linearGradient id="paint2_linear_4002_1508" x1="1134.73" y1="911.077" x2="1370.75" y2="1029.09" gradientUnits="userSpaceOnUse">
<stop stop-color="#141311"/>
<stop offset="0.0107527" stop-color="#141311"/>
<stop offset="0.365591" stop-color="#1E1C1B"/>
<stop offset="0.709677" stop-color="#433F41"/>
<stop offset="1" stop-color="#776D74"/>
</linearGradient>
<linearGradient id="paint3_linear_4002_1508" x1="1570.64" y1="1713.13" x2="1476.24" y2="1484.97" gradientUnits="userSpaceOnUse">
<stop stop-color="#D02725"/>
<stop offset="0.225807" stop-color="#E42F23"/>
<stop offset="0.467742" stop-color="#DA4C1F"/>
<stop offset="0.677419" stop-color="#DB511E"/>
<stop offset="0.822581" stop-color="#EA7118"/>
<stop offset="1" stop-color="#F39113"/>
</linearGradient>
<linearGradient id="paint4_linear_4002_1508" x1="1091.97" y1="1625.96" x2="1451.89" y2="1625.96" gradientUnits="userSpaceOnUse">
<stop stop-color="#776D74"/>
<stop offset="0.290323" stop-color="#433F41"/>
<stop offset="0.634409" stop-color="#1E1C1B"/>
<stop offset="0.989247" stop-color="#141311"/>
<stop offset="1" stop-color="#141311"/>
</linearGradient>
<linearGradient id="paint5_linear_4002_1508" x1="1355.28" y1="1652.59" x2="1406.41" y2="1119.66" gradientUnits="userSpaceOnUse">
<stop stop-color="#141311"/>
<stop offset="0.0107527" stop-color="#141311"/>
<stop offset="0.365591" stop-color="#1E1C1B"/>
<stop offset="0.709677" stop-color="#433F41"/>
<stop offset="1" stop-color="#776D74"/>
</linearGradient>
<linearGradient id="paint6_linear_4002_1508" x1="1665.9" y1="1382.82" x2="1382.71" y2="1026.2" gradientUnits="userSpaceOnUse">
<stop stop-color="#DDD0CA"/>
<stop offset="0.306452" stop-color="#F2E3DD"/>
<stop offset="0.655914" stop-color="#F3E6E1"/>
<stop offset="1" stop-color="#F7EFEB"/>
</linearGradient>
<linearGradient id="paint7_linear_4002_1508" x1="1394.1" y1="1192.11" x2="1563.25" y2="1019.03" gradientUnits="userSpaceOnUse">
<stop stop-color="#FBCB38"/>
<stop offset="0.182796" stop-color="#F89F22"/>
<stop offset="0.397849" stop-color="#F17815"/>
<stop offset="0.704301" stop-color="#EE591C"/>
<stop offset="1" stop-color="#EA451F"/>
</linearGradient>
<linearGradient id="paint8_linear_4002_1508" x1="1433.68" y1="1664.65" x2="1280.27" y2="1444.37" gradientUnits="userSpaceOnUse">
<stop stop-color="#D02725"/>
<stop offset="0.225807" stop-color="#E42F23"/>
<stop offset="0.467742" stop-color="#DA4C1F"/>
<stop offset="0.677419" stop-color="#DB511E"/>
<stop offset="0.822581" stop-color="#EA7118"/>
<stop offset="1" stop-color="#F39113"/>
</linearGradient>
<linearGradient id="paint9_linear_4002_1508" x1="1483.26" y1="600.469" x2="2573.99" y2="658.257" gradientUnits="userSpaceOnUse">
<stop stop-color="#EA451F"/>
<stop offset="0.295699" stop-color="#EE591C"/>
<stop offset="0.602151" stop-color="#F17815"/>
<stop offset="0.817204" stop-color="#F89F22"/>
<stop offset="1" stop-color="#FBCB38"/>
</linearGradient>
<linearGradient id="paint10_linear_4002_1508" x1="1563.18" y1="532.384" x2="2422.89" y2="1206.21" gradientUnits="userSpaceOnUse">
<stop stop-color="#EA451F"/>
<stop offset="0.295699" stop-color="#EE591C"/>
<stop offset="0.602151" stop-color="#F17815"/>
<stop offset="0.817204" stop-color="#F89F22"/>
<stop offset="1" stop-color="#FBCB38"/>
</linearGradient>
<linearGradient id="paint11_linear_4002_1508" x1="1499.55" y1="614.094" x2="2543.9" y2="934.058" gradientUnits="userSpaceOnUse">
<stop stop-color="#EA451F"/>
<stop offset="0.295699" stop-color="#EE591C"/>
<stop offset="0.602151" stop-color="#F17815"/>
<stop offset="0.817204" stop-color="#F89F22"/>
<stop offset="1" stop-color="#FBCB38"/>
</linearGradient>
<linearGradient id="paint12_linear_4002_1508" x1="1629.05" y1="454.991" x2="2290.2" y2="1324.49" gradientUnits="userSpaceOnUse">
<stop stop-color="#EA451F"/>
<stop offset="0.295699" stop-color="#EE591C"/>
<stop offset="0.602151" stop-color="#F17815"/>
<stop offset="0.817204" stop-color="#F89F22"/>
<stop offset="1" stop-color="#FBCB38"/>
</linearGradient>
<linearGradient id="paint13_linear_4002_1508" x1="1510.51" y1="625.399" x2="2481.21" y2="1126.18" gradientUnits="userSpaceOnUse">
<stop stop-color="#EA451F"/>
<stop offset="0.295699" stop-color="#EE591C"/>
<stop offset="0.602151" stop-color="#F17815"/>
<stop offset="0.817204" stop-color="#F89F22"/>
<stop offset="1" stop-color="#FBCB38"/>
</linearGradient>
<linearGradient id="paint14_linear_4002_1508" x1="1575.37" y1="515.313" x2="2365.17" y2="1269.86" gradientUnits="userSpaceOnUse">
<stop stop-color="#EA451F"/>
<stop offset="0.295699" stop-color="#EE591C"/>
<stop offset="0.602151" stop-color="#F17815"/>
<stop offset="0.817204" stop-color="#F89F22"/>
<stop offset="1" stop-color="#FBCB38"/>
</linearGradient>
<linearGradient id="paint15_linear_4002_1508" x1="1719.79" y1="387.176" x2="2228.58" y2="1353.69" gradientUnits="userSpaceOnUse">
<stop stop-color="#EA451F"/>
<stop offset="0.295699" stop-color="#EE591C"/>
<stop offset="0.602151" stop-color="#F17815"/>
<stop offset="0.817204" stop-color="#F89F22"/>
<stop offset="1" stop-color="#FBCB38"/>
</linearGradient>
<linearGradient id="paint16_linear_4002_1508" x1="1901.93" y1="315.331" x2="2192.78" y2="1368.17" gradientUnits="userSpaceOnUse">
<stop stop-color="#EA451F"/>
<stop offset="0.295699" stop-color="#EE591C"/>
<stop offset="0.602151" stop-color="#F17815"/>
<stop offset="0.817204" stop-color="#F89F22"/>
<stop offset="1" stop-color="#FBCB38"/>
</linearGradient>
<linearGradient id="paint17_linear_4002_1508" x1="1056.41" y1="1549.96" x2="629.741" y2="1160.63" gradientUnits="userSpaceOnUse">
<stop stop-color="#141311"/>
<stop offset="0.0107527" stop-color="#141311"/>
<stop offset="0.365591" stop-color="#1E1C1B"/>
<stop offset="0.709677" stop-color="#433F41"/>
<stop offset="1" stop-color="#776D74"/>
</linearGradient>
<linearGradient id="paint18_linear_4002_1508" x1="1433.97" y1="1136.2" x2="1007.3" y2="746.867" gradientUnits="userSpaceOnUse">
<stop stop-color="#141311"/>
<stop offset="0.0107527" stop-color="#141311"/>
<stop offset="0.365591" stop-color="#1E1C1B"/>
<stop offset="0.709677" stop-color="#433F41"/>
<stop offset="1" stop-color="#776D74"/>
</linearGradient>
<linearGradient id="paint19_linear_4002_1508" x1="1608.69" y1="944.719" x2="1182.03" y2="555.386" gradientUnits="userSpaceOnUse">
<stop stop-color="#141311"/>
<stop offset="0.0107527" stop-color="#141311"/>
<stop offset="0.365591" stop-color="#1E1C1B"/>
<stop offset="0.709677" stop-color="#433F41"/>
<stop offset="1" stop-color="#776D74"/>
</linearGradient>
<linearGradient id="paint20_linear_4002_1508" x1="1267.29" y1="1318.86" x2="840.625" y2="929.524" gradientUnits="userSpaceOnUse">
<stop stop-color="#141311"/>
<stop offset="0.0107527" stop-color="#141311"/>
<stop offset="0.365591" stop-color="#1E1C1B"/>
<stop offset="0.709677" stop-color="#433F41"/>
<stop offset="1" stop-color="#776D74"/>
</linearGradient>
<linearGradient id="paint21_linear_4002_1508" x1="1345.33" y1="1233.33" x2="918.664" y2="844" gradientUnits="userSpaceOnUse">
<stop stop-color="#141311"/>
<stop offset="0.0107527" stop-color="#141311"/>
<stop offset="0.365591" stop-color="#1E1C1B"/>
<stop offset="0.709677" stop-color="#433F41"/>
<stop offset="1" stop-color="#776D74"/>
</linearGradient>
<linearGradient id="paint22_linear_4002_1508" x1="1401.3" y1="1172" x2="974.633" y2="782.666" gradientUnits="userSpaceOnUse">
<stop stop-color="#141311"/>
<stop offset="0.0107527" stop-color="#141311"/>
<stop offset="0.365591" stop-color="#1E1C1B"/>
<stop offset="0.709677" stop-color="#433F41"/>
<stop offset="1" stop-color="#776D74"/>
</linearGradient>
<linearGradient id="paint23_linear_4002_1508" x1="1386.44" y1="1188.28" x2="959.774" y2="798.951" gradientUnits="userSpaceOnUse">
<stop stop-color="#141311"/>
<stop offset="0.0107527" stop-color="#141311"/>
<stop offset="0.365591" stop-color="#1E1C1B"/>
<stop offset="0.709677" stop-color="#433F41"/>
<stop offset="1" stop-color="#776D74"/>
</linearGradient>
<linearGradient id="paint24_linear_4002_1508" x1="1503.06" y1="1060.48" x2="1076.39" y2="671.146" gradientUnits="userSpaceOnUse">
<stop stop-color="#141311"/>
<stop offset="0.0107527" stop-color="#141311"/>
<stop offset="0.365591" stop-color="#1E1C1B"/>
<stop offset="0.709677" stop-color="#433F41"/>
<stop offset="1" stop-color="#776D74"/>
</linearGradient>
<linearGradient id="paint25_linear_4002_1508" x1="1473.52" y1="1092.85" x2="1046.86" y2="703.516" gradientUnits="userSpaceOnUse">
<stop stop-color="#141311"/>
<stop offset="0.0107527" stop-color="#141311"/>
<stop offset="0.365591" stop-color="#1E1C1B"/>
<stop offset="0.709677" stop-color="#433F41"/>
<stop offset="1" stop-color="#776D74"/>
</linearGradient>
<linearGradient id="paint26_linear_4002_1508" x1="1538.34" y1="1021.82" x2="1111.67" y2="632.483" gradientUnits="userSpaceOnUse">
<stop stop-color="#141311"/>
<stop offset="0.0107527" stop-color="#141311"/>
<stop offset="0.365591" stop-color="#1E1C1B"/>
<stop offset="0.709677" stop-color="#433F41"/>
<stop offset="1" stop-color="#776D74"/>
</linearGradient>
<linearGradient id="paint27_linear_4002_1508" x1="1172.41" y1="1422.84" x2="745.741" y2="1033.51" gradientUnits="userSpaceOnUse">
<stop stop-color="#141311"/>
<stop offset="0.0107527" stop-color="#141311"/>
<stop offset="0.365591" stop-color="#1E1C1B"/>
<stop offset="0.709677" stop-color="#433F41"/>
<stop offset="1" stop-color="#776D74"/>
</linearGradient>
</defs>
</svg>
