<svg width="1034" height="1913" viewBox="0 0 1034 1913" fill="none" xmlns="http://www.w3.org/2000/svg">
<g clip-path="url(#clip0_4008_1476)">
<path d="M982.797 444.077L780.254 375L625.931 391.422L498.303 499.395L526.365 520.409L498.303 546.721L468 625.175L550.731 781L588.774 776.364C519.196 657.478 550.655 570.549 559.464 550.905C560.711 548.151 561.508 546.721 561.508 546.721C561.508 546.721 576.569 492.441 662.23 499.395C747.907 506.334 767.673 591.156 856.656 572.009C945.625 552.847 999 513.815 999 513.815L982.797 444.077Z" fill="#EF3923"/>
<path d="M873.059 206.848C787.453 187.448 712.316 186.286 647.452 195.851C633.232 205.587 618.124 216.958 603 230.008C699.09 286.32 809.792 372.03 864.985 488.535C910.356 557.749 899.721 658 899.721 658C1216.69 283.513 873.059 206.848 873.059 206.848Z" fill="#EF3923"/>
<path d="M873.806 206.509C829.38 196.386 787.803 191.262 749 190C819.964 265.093 892.638 391.968 900 599.164C902.999 632.896 900.345 658 900.345 658C1215.84 283.232 873.806 206.509 873.806 206.509Z" fill="#E73022"/>
<path d="M916.129 221C985.139 386.247 900 658 900 658C1143.05 369.628 996.879 257.48 916.129 221Z" fill="#C52824"/>
<path d="M398 1614L412.583 1913H453.426L477 1614H398Z" fill="url(#paint0_linear_4008_1476)"/>
<path d="M655 1614L669.768 1879H711.128L735 1614H655Z" fill="url(#paint1_linear_4008_1476)"/>
<path d="M231.244 41.8284C231.244 41.8284 114.805 154.001 250.962 264.192C250.962 264.192 128.717 240.521 126.747 157.672C126.747 157.672 122.792 110.333 164.212 68.9031C164.212 68.9031 191.81 32.5107 152.375 41.8284C152.375 41.8284 80.4843 62.9841 74.0322 161.617C74.0322 161.617 71.5206 260.249 181.959 295.755C181.959 295.755 80.4092 310.551 35.0489 215.863C35.0489 215.863 24.2051 190.219 7.43557 204.027C7.43557 204.027 -17.1997 216.85 23.2125 278.001C23.2125 278.001 89.2677 382.555 232.237 369.736C232.237 369.736 162.331 438.766 74.0322 406.222C74.0322 406.222 43.9223 389.446 40.9595 391.432C40.9595 391.432 21.2421 383.864 32.0859 424.141C32.0859 424.141 46.5543 470 169.129 456.519C169.129 456.519 256.812 444.648 310.084 406.192C363.37 367.75 477.162 372.685 477.162 372.685L648 195.21C648 195.21 278.575 303.648 252.932 155.698C252.932 155.698 231.244 80.738 316.039 51.1507C316.039 51.1507 361.385 41.2883 375.191 68.9031C375.191 68.9031 390.968 90.6018 412.656 78.7669C412.656 78.7669 440.269 53.1247 406.745 29.4504C406.745 29.4504 375.296 0.00601893 327.8 6.76471e-07C300.067 -0.00300845 266.874 10.0325 231.244 41.8284Z" fill="url(#paint2_linear_4008_1476)"/>
<path d="M684.1 1020.26C569.121 1060.21 508.307 1185.83 548.283 1300.83C588.259 1415.83 713.905 1476.68 828.884 1436.74C943.892 1396.77 1004.69 1271.17 964.716 1156.17C933.06 1065.09 847.706 1007.98 756.454 1008C732.456 1008 708.052 1011.94 684.1 1020.26Z" fill="url(#paint3_linear_4008_1476)"/>
<path d="M113 1106.24V1208.18C113 1208.18 163.342 1392.06 163.342 1400.96C163.342 1409.86 255.141 1516 255.141 1516H462.442L619.401 1463.46L655 1380.19L554.406 1207.17C557.192 1359.12 374.031 1362.4 374.031 1362.4C164.185 1383.16 138.314 1051 138.314 1051L113 1106.24Z" fill="url(#paint4_linear_4008_1476)"/>
<path d="M334.946 372.409C56.9051 724.15 435.664 1145.65 435.664 1145.65C589.493 1301.98 571.082 1382.12 571.082 1382.12C569.758 1462.26 444.388 1463.1 444.388 1463.1C101.277 1454.24 138.385 1052.25 138.385 1052.25C19.8431 1283.33 101.277 1427.62 101.277 1427.62C154.509 1587.24 441.44 1646.35 441.44 1646.35C843.723 1723.2 932.453 1424.67 932.453 1424.67C1006.41 1185.25 781.602 990.173 781.602 990.173L722.444 931.058C663.286 871.944 610.039 806.907 610.039 806.907C553.829 735.979 542.007 653.221 542.007 653.221C515.383 437.445 716.533 425.616 716.533 425.616C926.541 407.88 899.918 659.128 899.918 659.128C1216.42 283.739 873.295 206.89 873.295 206.89C821.311 195.064 773.209 189.997 728.912 190C463.175 190.02 334.946 372.409 334.946 372.409Z" fill="url(#paint5_linear_4008_1476)"/>
<path d="M649.138 195.867C649.138 195.867 295.687 316.287 307.491 611.969C307.491 611.969 283.899 810.075 563.906 1005.22C563.906 1005.22 991.745 1259.5 903.124 1487C924.87 1451.7 932.744 1425.08 932.744 1425.08C1006.49 1185.58 782.333 990.44 782.333 990.44L723.347 931.306C664.361 872.172 611.269 807.113 611.269 807.113C555.237 736.161 543.434 653.376 543.434 653.376C516.888 437.528 717.453 425.695 717.453 425.695C926.85 407.953 900.304 659.285 900.304 659.285C1215.89 283.77 873.773 206.895 873.773 206.895C821.941 195.067 773.979 190 729.826 190C701.345 190 674.469 192.106 649.138 195.867Z" fill="url(#paint6_linear_4008_1476)"/>
<path d="M647.907 195.85C531.573 275.563 355.477 464.764 600.031 792C552.276 724.583 541.864 651.921 541.864 651.921C515.233 436.751 716.426 424.956 716.426 424.956C926.51 407.27 899.879 657.811 899.879 657.811C1216.47 283.476 873.248 206.844 873.248 206.844C821.265 195.052 773.148 190 728.838 190C700.282 190 673.304 192.101 647.907 195.85Z" fill="url(#paint7_linear_4008_1476)"/>
<path d="M363.495 1035.26C361.654 1035.9 359.827 1036.56 358 1037.25C400.242 1104.69 437.168 1145.93 437.168 1145.93C590.307 1302.14 571.979 1382.22 571.979 1382.22C571.605 1404.93 561.302 1421.26 546.733 1433C635.229 1380.97 677.741 1271.88 642.776 1170.95C611.271 1080.03 526.323 1023.02 435.506 1023C411.622 1023 387.334 1026.95 363.495 1035.26Z" fill="url(#paint8_linear_4008_1476)"/>
</g>
<defs>
<linearGradient id="paint0_linear_4008_1476" x1="437.493" y1="1913" x2="437.493" y2="1614" gradientUnits="userSpaceOnUse">
<stop stop-color="#F39113"/>
<stop offset="0.177419" stop-color="#EA7118"/>
<stop offset="0.322581" stop-color="#DB511E"/>
<stop offset="0.532258" stop-color="#DA4C1F"/>
<stop offset="0.774193" stop-color="#E42F23"/>
<stop offset="1" stop-color="#D02725"/>
</linearGradient>
<linearGradient id="paint1_linear_4008_1476" x1="695.008" y1="1879" x2="695.008" y2="1614" gradientUnits="userSpaceOnUse">
<stop stop-color="#F39113"/>
<stop offset="0.177419" stop-color="#EA7118"/>
<stop offset="0.322581" stop-color="#DB511E"/>
<stop offset="0.532258" stop-color="#DA4C1F"/>
<stop offset="0.774193" stop-color="#E42F23"/>
<stop offset="1" stop-color="#D02725"/>
</linearGradient>
<linearGradient id="paint2_linear_4008_1476" x1="177.447" y1="208.818" x2="532.473" y2="386.268" gradientUnits="userSpaceOnUse">
<stop stop-color="#141311"/>
<stop offset="0.0107527" stop-color="#141311"/>
<stop offset="0.365591" stop-color="#1E1C1B"/>
<stop offset="0.709677" stop-color="#433F41"/>
<stop offset="1" stop-color="#776D74"/>
</linearGradient>
<linearGradient id="paint3_linear_4008_1476" x1="834.029" y1="1415.81" x2="692.078" y2="1072.61" gradientUnits="userSpaceOnUse">
<stop stop-color="#D02725"/>
<stop offset="0.225807" stop-color="#E42F23"/>
<stop offset="0.467742" stop-color="#DA4C1F"/>
<stop offset="0.677419" stop-color="#DB511E"/>
<stop offset="0.822581" stop-color="#EA7118"/>
<stop offset="1" stop-color="#F39113"/>
</linearGradient>
<linearGradient id="paint4_linear_4008_1476" x1="113" y1="1283.49" x2="655" y2="1283.49" gradientUnits="userSpaceOnUse">
<stop stop-color="#776D74"/>
<stop offset="0.290323" stop-color="#433F41"/>
<stop offset="0.634409" stop-color="#1E1C1B"/>
<stop offset="0.989247" stop-color="#141311"/>
<stop offset="1" stop-color="#141311"/>
</linearGradient>
<linearGradient id="paint5_linear_4008_1476" x1="509.156" y1="1323.98" x2="585.951" y2="522.957" gradientUnits="userSpaceOnUse">
<stop stop-color="#141311"/>
<stop offset="0.0107527" stop-color="#141311"/>
<stop offset="0.365591" stop-color="#1E1C1B"/>
<stop offset="0.709677" stop-color="#433F41"/>
<stop offset="1" stop-color="#776D74"/>
</linearGradient>
<linearGradient id="paint6_linear_4008_1476" x1="976.538" y1="918.752" x2="550.509" y2="383.601" gradientUnits="userSpaceOnUse">
<stop stop-color="#DDD0CA"/>
<stop offset="0.306452" stop-color="#F2E3DD"/>
<stop offset="0.655914" stop-color="#F3E6E1"/>
<stop offset="1" stop-color="#F7EFEB"/>
</linearGradient>
<linearGradient id="paint7_linear_4008_1476" x1="567.412" y1="630.623" x2="820.912" y2="370.235" gradientUnits="userSpaceOnUse">
<stop stop-color="#FBCB38"/>
<stop offset="0.182796" stop-color="#F89F22"/>
<stop offset="0.397849" stop-color="#F17815"/>
<stop offset="0.704301" stop-color="#EE591C"/>
<stop offset="1" stop-color="#EA451F"/>
</linearGradient>
<linearGradient id="paint8_linear_4008_1476" x1="627.727" y1="1342.24" x2="397.085" y2="1012.05" gradientUnits="userSpaceOnUse">
<stop stop-color="#D02725"/>
<stop offset="0.225807" stop-color="#E42F23"/>
<stop offset="0.467742" stop-color="#DA4C1F"/>
<stop offset="0.677419" stop-color="#DB511E"/>
<stop offset="0.822581" stop-color="#EA7118"/>
<stop offset="1" stop-color="#F39113"/>
</linearGradient>
<clipPath id="clip0_4008_1476">
<rect width="1034" height="1913" fill="white"/>
</clipPath>
</defs>
</svg>
